<svg version="1.2" baseProfile="tiny" id="Ebene_1" xmlns:x="&amp;ns_extend;" xmlns:i="&amp;ns_ai;" xmlns:graph="&amp;ns_graphs;" xmlns="http://www.w3.org/2000/svg" xmlns:xlink="http://www.w3.org/1999/xlink" x="0px" y="0px" width="187.484px" height="62.623px" viewBox="0 0 187.484 62.623" xml:space="preserve">
<metadata>
	<sfw xmlns="&amp;ns_sfw;">
		<slices></slices>
        <slicesourcebounds width="251.137" height="94.107" y="0" x="0" bottomleftorigin="true"></slicesourcebounds>
	</sfw>
</metadata>
    <g>
	<path fill="none" d="M122.8,59.496c-0.067-0.081-0.146-0.149-0.231-0.207c-0.086-0.057-0.178-0.085-0.274-0.085
		c-0.137,0-0.255,0.036-0.356,0.109c-0.104,0.073-0.191,0.17-0.264,0.292c-0.072,0.121-0.128,0.258-0.166,0.409
		c-0.037,0.15-0.058,0.308-0.058,0.469c0,0.152,0.015,0.314,0.041,0.487c0.027,0.173,0.073,0.333,0.138,0.481
		s0.151,0.272,0.26,0.372c0.106,0.101,0.243,0.15,0.405,0.15c0.091,0,0.181-0.027,0.267-0.081c0.087-0.054,0.165-0.119,0.235-0.194
		c0.069-0.076,0.127-0.151,0.17-0.227c0.044-0.075,0.069-0.138,0.081-0.187v-1.345c-0.012-0.049-0.037-0.115-0.081-0.198
		C122.923,59.659,122.866,59.577,122.8,59.496z"></path>
        <path fill="none" d="M118.747,59.541c-0.061-0.111-0.14-0.205-0.234-0.284c-0.094-0.078-0.206-0.117-0.336-0.117
		s-0.242,0.036-0.34,0.109c-0.097,0.073-0.177,0.162-0.238,0.267c-0.063,0.106-0.109,0.219-0.143,0.341
		c-0.033,0.121-0.051,0.231-0.056,0.328h1.547c-0.006-0.081-0.025-0.181-0.057-0.3C118.857,59.766,118.811,59.651,118.747,59.541z"></path>
        <path fill="none" d="M107.941,51.561c0.021,0.011,0.064,0.023,0.125,0.033c0.063,0.012,0.128,0.02,0.203,0.029
		c0.072,0.007,0.146,0.016,0.22,0.022c0.077,0.009,0.14,0.012,0.194,0.012c0.187,0,0.354-0.055,0.504-0.17
		c0.15-0.111,0.273-0.254,0.377-0.426c0.101-0.173,0.177-0.363,0.234-0.574c0.053-0.209,0.08-0.409,0.08-0.596
		c0-0.178-0.021-0.359-0.062-0.545c-0.043-0.187-0.103-0.354-0.185-0.504c-0.084-0.151-0.19-0.273-0.315-0.367
		c-0.126-0.094-0.279-0.141-0.457-0.141c-0.106,0-0.212,0.032-0.318,0.096c-0.104,0.064-0.2,0.139-0.284,0.222
		c-0.088,0.084-0.16,0.169-0.22,0.254c-0.06,0.087-0.094,0.151-0.097,0.194V51.561z"></path>
        <path fill="none" d="M102.566,14.235c-0.748-0.639-1.717-0.957-2.912-0.957h-3.481v7.371h3.388c0.532,0,1.043-0.094,1.536-0.287
		c0.488-0.192,0.925-0.457,1.308-0.799c0.386-0.338,0.693-0.744,0.931-1.211c0.231-0.467,0.351-0.979,0.351-1.533
		C103.686,15.735,103.313,14.871,102.566,14.235z"></path>
        <polygon fill="none" points="92.847,60.517 94.338,60.517 93.584,58.111 	"></polygon>
        <path fill="none" d="M112.455,39.96c-0.072-0.14-0.168-0.258-0.285-0.358c-0.119-0.1-0.262-0.148-0.43-0.148
		c-0.154,0-0.294,0.046-0.41,0.141c-0.117,0.094-0.215,0.211-0.291,0.351c-0.074,0.141-0.134,0.288-0.174,0.447
		c-0.039,0.158-0.06,0.305-0.06,0.439h1.864c0-0.118-0.019-0.259-0.053-0.419C112.582,40.25,112.528,40.1,112.455,39.96z"></path>
        <path fill="none" d="M113.684,49.271c-0.035-0.162-0.091-0.312-0.162-0.451c-0.07-0.141-0.168-0.26-0.287-0.36
		c-0.117-0.1-0.263-0.148-0.428-0.148c-0.156,0-0.294,0.046-0.41,0.141c-0.119,0.095-0.218,0.212-0.291,0.352
		c-0.074,0.14-0.134,0.288-0.174,0.447c-0.039,0.158-0.061,0.306-0.061,0.439h1.861C113.732,49.571,113.714,49.432,113.684,49.271z"></path>
        <path fill="none" d="M98.673,59.496c-0.067-0.081-0.146-0.149-0.231-0.207c-0.086-0.057-0.178-0.085-0.275-0.085
		c-0.136,0-0.254,0.036-0.355,0.109c-0.104,0.073-0.191,0.17-0.264,0.292c-0.072,0.121-0.128,0.258-0.166,0.409
		c-0.037,0.15-0.058,0.308-0.058,0.469c0,0.152,0.015,0.314,0.041,0.487c0.027,0.173,0.073,0.333,0.137,0.481
		c0.065,0.148,0.152,0.272,0.261,0.372c0.106,0.101,0.243,0.15,0.404,0.15c0.092,0,0.182-0.027,0.268-0.081
		c0.087-0.054,0.165-0.119,0.235-0.194c0.069-0.076,0.127-0.151,0.17-0.227c0.044-0.075,0.069-0.138,0.081-0.187v-1.345
		c-0.012-0.049-0.037-0.115-0.081-0.198C98.796,59.659,98.739,59.577,98.673,59.496z"></path>
        <path fill="none" d="M99.121,48.819c-0.072-0.141-0.17-0.26-0.289-0.36c-0.117-0.1-0.258-0.148-0.426-0.148
		c-0.156,0-0.294,0.046-0.412,0.141c-0.117,0.095-0.216,0.212-0.289,0.352c-0.076,0.14-0.136,0.288-0.174,0.447
		c-0.041,0.158-0.062,0.306-0.062,0.439h1.864c0-0.118-0.019-0.258-0.053-0.419C99.246,49.108,99.19,48.959,99.121,48.819z"></path>
        <path fill="none" d="M105.966,60.89c-0.109,0.048-0.204,0.104-0.288,0.17c-0.084,0.064-0.151,0.137-0.202,0.215
		c-0.052,0.078-0.078,0.157-0.078,0.238c0,0.168,0.057,0.298,0.17,0.39c0.114,0.091,0.244,0.137,0.39,0.137
		c0.104,0,0.204-0.022,0.305-0.068c0.099-0.045,0.188-0.104,0.267-0.175c0.078-0.069,0.146-0.146,0.198-0.227
		c0.054-0.081,0.089-0.156,0.105-0.227v-0.688l-0.534,0.122C106.185,60.803,106.073,60.84,105.966,60.89z"></path>
        <path fill="none" d="M120.337,52.969c0.058-0.093,0.084-0.19,0.084-0.285c0-0.21-0.106-0.383-0.315-0.52
		c-0.215-0.14-0.483-0.207-0.803-0.207c-0.138,0-0.269,0.019-0.394,0.056c-0.129,0.038-0.238,0.09-0.334,0.154
		c-0.097,0.064-0.175,0.141-0.233,0.229c-0.06,0.09-0.091,0.186-0.091,0.288c0,0.102,0.027,0.199,0.078,0.294
		c0.049,0.093,0.121,0.178,0.213,0.25c0.093,0.072,0.201,0.13,0.33,0.173s0.272,0.065,0.431,0.065c0.159,0,0.309-0.024,0.442-0.069
		c0.133-0.046,0.252-0.104,0.356-0.177C120.202,53.146,120.28,53.063,120.337,52.969z"></path>
        <path fill="none" d="M96.173,22.481v8.334h3.485c0.617,0,1.205-0.106,1.761-0.321c0.554-0.212,1.039-0.509,1.455-0.892
		c0.416-0.383,0.739-0.84,0.974-1.371c0.237-0.533,0.354-1.119,0.354-1.76c0-1.234-0.423-2.209-1.263-2.92
		c-0.843-0.715-1.937-1.07-3.281-1.07H96.173z"></path>
        <path fill="none" d="M119.303,50.343c0.149,0,0.276-0.033,0.381-0.101c0.104-0.066,0.19-0.152,0.258-0.254
		c0.068-0.102,0.117-0.218,0.147-0.344c0.029-0.125,0.044-0.25,0.044-0.374c0-0.296-0.074-0.534-0.224-0.714
		c-0.146-0.181-0.349-0.271-0.606-0.271c-0.132,0-0.246,0.028-0.353,0.082c-0.104,0.053-0.192,0.126-0.261,0.217
		c-0.071,0.092-0.123,0.196-0.164,0.314c-0.038,0.119-0.057,0.243-0.057,0.372c0,0.146,0.016,0.284,0.047,0.415
		c0.028,0.132,0.076,0.247,0.14,0.343c0.065,0.098,0.151,0.173,0.254,0.23C119.014,50.314,119.145,50.343,119.303,50.343z"></path>
        <path fill="none" d="M71.858,39.96c-0.072-0.14-0.167-0.258-0.285-0.358c-0.119-0.1-0.261-0.148-0.428-0.148
		c-0.156,0-0.292,0.046-0.412,0.141c-0.117,0.094-0.215,0.211-0.29,0.351c-0.075,0.141-0.133,0.288-0.173,0.447
		c-0.041,0.158-0.061,0.305-0.061,0.439h1.864c0-0.118-0.017-0.259-0.052-0.419C71.986,40.25,71.932,40.1,71.858,39.96z"></path>
        <path fill="none" d="M72.477,59.541c-0.062-0.111-0.141-0.205-0.235-0.284c-0.094-0.078-0.206-0.117-0.336-0.117
		s-0.243,0.036-0.34,0.109c-0.097,0.073-0.177,0.162-0.239,0.267c-0.062,0.106-0.109,0.219-0.142,0.341
		c-0.032,0.121-0.051,0.231-0.057,0.328h1.548c-0.006-0.081-0.025-0.181-0.057-0.3C72.586,59.766,72.539,59.651,72.477,59.541z"></path>
        <path fill="none" d="M69.133,48.819c-0.073-0.141-0.168-0.26-0.287-0.36c-0.118-0.1-0.261-0.148-0.427-0.148
		c-0.156,0-0.293,0.046-0.411,0.141c-0.119,0.095-0.215,0.212-0.292,0.352c-0.074,0.14-0.131,0.288-0.172,0.447
		c-0.041,0.158-0.061,0.306-0.061,0.439h1.864c0-0.118-0.017-0.258-0.052-0.419C69.26,49.108,69.206,48.959,69.133,48.819z"></path>
        <path fill="none" d="M23.616,31.156c-0.082,0.042-0.159,0.072-0.222,0.072C23.457,31.228,23.535,31.198,23.616,31.156z"></path>
        <path fill="none" d="M33.672,20.81c-0.119,0.3-0.303,0.609-0.525,0.871C33.369,21.419,33.554,21.11,33.672,20.81z"></path>
        <path fill="none" d="M65.434,16.437c-0.498-0.641-1.103-1.147-1.806-1.52c-0.703-0.373-1.504-0.559-2.399-0.559h-2.398v15.377
		h2.207c0.893,0,1.703-0.201,2.43-0.607c0.726-0.404,1.349-0.969,1.871-1.693c0.519-0.725,0.92-1.584,1.197-2.573
		c0.277-0.994,0.416-2.086,0.416-3.279c0-1.021-0.127-1.977-0.383-2.859C66.313,17.838,65.934,17.073,65.434,16.437z"></path>
        <path fill="none" d="M63.635,51.062c0.08,0.172,0.185,0.315,0.314,0.426c0.128,0.115,0.288,0.17,0.477,0.17
		c0.117,0,0.232-0.031,0.342-0.096c0.11-0.064,0.206-0.141,0.285-0.226c0.082-0.087,0.148-0.171,0.199-0.255
		c0.051-0.084,0.081-0.146,0.093-0.189v-1.742c-0.012-0.043-0.041-0.109-0.088-0.198c-0.049-0.09-0.115-0.178-0.194-0.271
		c-0.081-0.091-0.175-0.171-0.283-0.241s-0.226-0.104-0.354-0.104c-0.157,0-0.298,0.039-0.42,0.12
		c-0.124,0.08-0.229,0.192-0.319,0.335c-0.089,0.142-0.157,0.309-0.206,0.496c-0.048,0.188-0.072,0.391-0.072,0.605
		c0,0.187,0.018,0.387,0.053,0.596C63.497,50.698,63.553,50.889,63.635,51.062z"></path>
        <path fill="none" d="M56.854,42.505c0.213-0.121,0.397-0.285,0.553-0.495c0.156-0.21,0.278-0.456,0.367-0.738
		c0.088-0.283,0.134-0.588,0.134-0.916c0-0.327-0.05-0.622-0.146-0.88s-0.225-0.477-0.388-0.658
		c-0.161-0.179-0.347-0.318-0.56-0.414c-0.212-0.097-0.434-0.146-0.665-0.146h-0.661v4.43h0.684
		C56.414,42.688,56.64,42.626,56.854,42.505z"></path>
        <path fill="none" d="M56.729,48.906c0.123-0.048,0.234-0.115,0.33-0.201c0.098-0.087,0.175-0.188,0.235-0.306
		c0.058-0.118,0.088-0.248,0.088-0.388c0-0.274-0.094-0.493-0.282-0.653c-0.188-0.161-0.433-0.242-0.735-0.242h-0.878v1.864h0.855
		C56.476,48.98,56.605,48.956,56.729,48.906z"></path>
        <path fill="none" d="M60.134,50.19c-0.129,0.054-0.247,0.117-0.352,0.193c-0.105,0.075-0.192,0.16-0.262,0.258
		c-0.07,0.097-0.105,0.202-0.105,0.315c0,0.225,0.069,0.404,0.206,0.531c0.137,0.13,0.306,0.193,0.505,0.193
		c0.123,0,0.243-0.023,0.359-0.076c0.115-0.052,0.22-0.116,0.314-0.192c0.094-0.079,0.174-0.162,0.238-0.251
		c0.064-0.089,0.11-0.174,0.137-0.254v-0.984l-0.678,0.146C60.384,50.095,60.263,50.136,60.134,50.19z"></path>
        <path fill="none" d="M61.253,59.541c-0.062-0.111-0.141-0.205-0.235-0.284c-0.094-0.078-0.206-0.117-0.336-0.117
		s-0.243,0.036-0.34,0.109c-0.097,0.073-0.177,0.162-0.239,0.267c-0.062,0.106-0.109,0.219-0.142,0.341
		c-0.032,0.121-0.051,0.231-0.057,0.328h1.548c-0.006-0.081-0.025-0.181-0.057-0.3C61.362,59.766,61.315,59.651,61.253,59.541z"></path>
        <path fill="none" d="M64.675,41.332c-0.129,0.054-0.247,0.118-0.351,0.192c-0.105,0.075-0.192,0.162-0.262,0.26
		c-0.071,0.096-0.106,0.2-0.106,0.314c0,0.226,0.069,0.403,0.207,0.531c0.136,0.13,0.305,0.193,0.503,0.193
		c0.124,0,0.243-0.024,0.361-0.076c0.114-0.052,0.219-0.115,0.313-0.192c0.095-0.078,0.174-0.161,0.238-0.251
		c0.065-0.089,0.11-0.172,0.138-0.254v-0.984l-0.678,0.146C64.925,41.237,64.804,41.278,64.675,41.332z"></path>
        <path fill="none" d="M56.809,51.465c0.14-0.054,0.263-0.13,0.368-0.226c0.105-0.098,0.187-0.213,0.245-0.348
		c0.06-0.135,0.089-0.282,0.089-0.443c0-0.312-0.106-0.558-0.319-0.739c-0.211-0.179-0.488-0.27-0.827-0.27h-0.878v2.105h0.878
		C56.521,51.545,56.669,51.519,56.809,51.465z"></path>
        <path fill="none" d="M140.209,59.496c-0.068-0.081-0.146-0.149-0.231-0.207c-0.086-0.057-0.178-0.085-0.274-0.085
		c-0.137,0-0.255,0.036-0.357,0.109s-0.19,0.17-0.263,0.292c-0.073,0.121-0.128,0.258-0.167,0.409
		c-0.037,0.15-0.058,0.308-0.058,0.469c0,0.152,0.015,0.314,0.041,0.487c0.028,0.173,0.074,0.333,0.139,0.481
		s0.15,0.272,0.259,0.372c0.107,0.101,0.244,0.15,0.406,0.15c0.091,0,0.18-0.027,0.267-0.081s0.165-0.119,0.235-0.194
		c0.069-0.076,0.127-0.151,0.17-0.227s0.069-0.138,0.08-0.187v-1.345c-0.011-0.049-0.037-0.115-0.08-0.198
		C140.332,59.659,140.275,59.577,140.209,59.496z"></path>
        <path fill="none" d="M81.617,42.158c0.074,0.181,0.178,0.332,0.311,0.456c0.13,0.124,0.3,0.185,0.505,0.185
		c0.198,0,0.364-0.061,0.496-0.185c0.133-0.124,0.235-0.275,0.313-0.456c0.078-0.18,0.133-0.371,0.162-0.577
		c0.029-0.204,0.045-0.387,0.045-0.548c0-0.135-0.016-0.291-0.049-0.468c-0.031-0.178-0.09-0.347-0.17-0.508
		c-0.08-0.162-0.183-0.299-0.314-0.412c-0.129-0.112-0.291-0.17-0.483-0.17c-0.187,0-0.347,0.054-0.476,0.163
		c-0.129,0.105-0.237,0.239-0.317,0.398c-0.078,0.158-0.138,0.328-0.171,0.509c-0.036,0.179-0.053,0.342-0.053,0.487
		c0,0.161,0.015,0.344,0.043,0.548C81.49,41.787,81.541,41.979,81.617,42.158z"></path>
        <polygon fill="none" points="165.768,13.638 162.309,24.621 169.29,24.621 	"></polygon>
        <path fill="none" d="M83.217,61.432c0.061,0.151,0.146,0.28,0.255,0.386c0.108,0.104,0.248,0.157,0.42,0.157
		c0.173,0,0.315-0.052,0.426-0.153c0.111-0.104,0.197-0.229,0.259-0.377s0.105-0.31,0.13-0.482c0.024-0.173,0.036-0.332,0.036-0.478
		c0-0.108-0.015-0.236-0.044-0.386c-0.03-0.147-0.077-0.288-0.143-0.421c-0.064-0.132-0.15-0.244-0.258-0.336
		c-0.109-0.092-0.243-0.138-0.406-0.138c-0.162,0-0.296,0.044-0.404,0.13c-0.108,0.087-0.195,0.194-0.26,0.324
		c-0.064,0.13-0.111,0.269-0.137,0.417c-0.027,0.148-0.04,0.285-0.04,0.409c0,0.135,0.011,0.288,0.036,0.462
		C83.111,61.119,83.154,61.281,83.217,61.432z"></path>
        <path fill="none" d="M146.6,59.541c-0.062-0.111-0.14-0.205-0.233-0.284c-0.096-0.078-0.207-0.117-0.338-0.117
		c-0.129,0-0.241,0.036-0.34,0.109c-0.097,0.073-0.176,0.162-0.238,0.267c-0.063,0.106-0.109,0.219-0.143,0.341
		c-0.032,0.121-0.05,0.231-0.056,0.328h1.547c-0.005-0.081-0.025-0.181-0.057-0.3C146.71,59.766,146.663,59.651,146.6,59.541z"></path>
        <path fill="#7D888E" d="M33.812,20.233v0.015c0,0.159-0.059,0.356-0.14,0.561c-0.119,0.3-0.303,0.61-0.525,0.871
		c-0.046,0.054-0.088,0.116-0.137,0.164l-9.052,9.053c-0.124,0.124-0.238,0.204-0.343,0.258c-0.082,0.042-0.159,0.072-0.222,0.072
		c-0.144,0-0.232-0.109-0.233-0.327v0.986c0,0.441,0.357,0.799,0.798,0.799h19.704c0.439,0,0.799-0.358,0.799-0.799V12.184
		c0-0.44-0.36-0.797-0.799-0.797h-9.851v0V20.233z"></path>
        <path fill="#E3000F" d="M23.394,31.228c0.063,0,0.141-0.03,0.222-0.072c0.104-0.054,0.219-0.134,0.343-0.258l9.052-9.053
		c0.048-0.048,0.09-0.11,0.137-0.164c0.222-0.262,0.406-0.571,0.525-0.871c0.081-0.205,0.14-0.402,0.14-0.561v-0.015
		c0,0.439-0.362,1.156-0.801,1.595l-9.052,9.053c-0.441,0.441-0.799,0.441-0.799,0V12.168c0-0.439,0.358-0.797,0.799-0.797h9.853
		V0.543c0-0.441-0.362-0.441-0.801,0l-9.052,9.053c-0.441,0.441-0.799,1.156-0.799,1.597v0.991v18.713
		c0,0.002,0.001,0.002,0.001,0.004C23.162,31.119,23.25,31.228,23.394,31.228z"></path>
        <path fill="#8A1004" d="M23.959,11.372c-0.441,0-0.799,0.358-0.799,0.797v18.713c0,0.441,0.358,0.441,0.799,0l9.052-9.053
		c0.439-0.439,0.801-1.156,0.801-1.595v-8.846v0v-0.016H23.959z"></path>
        <path fill="#7D888E" d="M11.451,43.415l9.053-9.053c0.441-0.442,0.801-1.156,0.801-1.6v-0.875c0,0.252-0.125,0.468-0.308,0.614
		c-0.137,0.11-0.304,0.186-0.493,0.186h-9.85v10.729C10.654,43.856,11.01,43.856,11.451,43.415z"></path>
        <path fill="#E3000F" d="M20.997,32.501c-0.137,0.11-0.304,0.185-0.493,0.185h-9.85v-8.977c0-0.439,0.356-1.154,0.797-1.595
		l9.053-9.053c0.441-0.441,0.801-0.441,0.801,0v-0.877c0-0.44-0.36-0.797-0.801-0.797H0.799C0.358,11.387,0,11.744,0,12.184v19.703
		c0,0.441,0.358,0.799,0.799,0.799h9.855h9.85C20.693,32.687,20.86,32.611,20.997,32.501z"></path>
        <path fill="#8A1004" d="M20.504,13.061l-9.053,9.053c-0.441,0.441-0.797,1.156-0.797,1.595v8.977h9.85
		c0.189,0,0.356-0.075,0.493-0.185c0.183-0.146,0.308-0.361,0.308-0.614V13.061C21.305,12.62,20.945,12.62,20.504,13.061z"></path>
        <path fill="#E3000F" d="M68.157,14.209c-0.84-0.895-1.857-1.586-3.051-2.076c-1.191-0.49-2.511-0.735-3.961-0.735h-5.304
		c-0.235,0-0.42,0.075-0.559,0.225c-0.139,0.148-0.209,0.338-0.209,0.574v19.698c0,0.234,0.07,0.425,0.209,0.576
		c0.137,0.146,0.324,0.22,0.559,0.22h5.336c1.47,0,2.802-0.275,3.994-0.83c1.193-0.552,2.205-1.324,3.035-2.312
		c0.83-0.99,1.476-2.166,1.934-3.53c0.457-1.361,0.685-2.839,0.685-4.437c0-1.531-0.232-2.92-0.703-4.164
		C69.655,16.172,68.999,15.104,68.157,14.209z M66.536,24.862c-0.277,0.989-0.678,1.848-1.197,2.573
		c-0.522,0.724-1.145,1.289-1.871,1.693c-0.727,0.406-1.537,0.607-2.43,0.607h-2.207V14.357h2.398c0.895,0,1.696,0.186,2.399,0.559
		c0.703,0.373,1.308,0.879,1.806,1.52c0.5,0.636,0.879,1.402,1.135,2.287c0.256,0.882,0.383,1.838,0.383,2.859
		C66.952,22.775,66.813,23.868,66.536,24.862z"></path>
        <path fill="#E3000F" d="M77.975,11.623c-0.146-0.15-0.34-0.224-0.572-0.224h-2.197c-0.233,0-0.418,0.074-0.557,0.224
		c-0.137,0.149-0.207,0.338-0.207,0.575v19.697c0,0.234,0.07,0.426,0.207,0.576c0.139,0.146,0.324,0.221,0.557,0.221h2.197
		c0.232,0,0.426-0.075,0.572-0.223c0.149-0.148,0.223-0.34,0.223-0.574v-8.758h7.373v8.758c0,0.234,0.07,0.426,0.207,0.574
		c0.137,0.148,0.322,0.223,0.556,0.223h2.198c0.234,0,0.424-0.075,0.572-0.221c0.148-0.15,0.225-0.342,0.225-0.576V12.198
		c0-0.237-0.077-0.426-0.225-0.575c-0.148-0.15-0.338-0.224-0.572-0.224h-2.198c-0.234,0-0.419,0.074-0.556,0.224
		c-0.137,0.149-0.207,0.338-0.207,0.575v7.816h-7.373v-7.816C78.198,11.961,78.124,11.772,77.975,11.623z"></path>
        <path fill="#5D686D" d="M104.712,19.776c0.383-0.414,0.703-0.883,0.959-1.403c0.256-0.521,0.385-1.07,0.385-1.644
		c0-0.916-0.174-1.709-0.528-2.377c-0.353-0.67-0.817-1.225-1.405-1.66c-0.586-0.436-1.269-0.762-2.045-0.975
		c-0.777-0.211-1.582-0.318-2.414-0.318h-5.272c-0.15,0-0.277,0.047-0.382,0.142c-0.108,0.098-0.162,0.221-0.162,0.369v20.241
		c0,0.148,0.054,0.277,0.162,0.384c0.104,0.104,0.231,0.157,0.382,0.157h4.887c0.998,0,1.947-0.137,2.84-0.412
		c0.896-0.28,1.677-0.68,2.347-1.198c0.672-0.523,1.199-1.168,1.582-1.933c0.383-0.768,0.576-1.629,0.576-2.586
		c0-0.66-0.125-1.285-0.371-1.869c-0.244-0.586-0.574-1.102-0.988-1.549c-0.416-0.447-0.896-0.813-1.438-1.102
		c-0.541-0.287-1.112-0.484-1.707-0.592c0.427-0.126,0.869-0.334,1.328-0.623C103.904,20.543,104.327,20.192,104.712,19.776z
		 M102.939,23.551c0.84,0.711,1.263,1.686,1.263,2.92c0,0.641-0.117,1.227-0.354,1.76c-0.234,0.531-0.558,0.988-0.974,1.371
		c-0.416,0.383-0.901,0.68-1.455,0.892c-0.556,0.215-1.144,0.321-1.761,0.321h-3.485v-8.334h3.485
		C101.003,22.481,102.097,22.836,102.939,23.551z M102.404,19.563c-0.383,0.342-0.819,0.607-1.308,0.799
		c-0.493,0.193-1.004,0.287-1.536,0.287h-3.388v-7.371h3.481c1.195,0,2.164,0.318,2.912,0.957c0.746,0.636,1.119,1.5,1.119,2.584
		c0,0.554-0.119,1.066-0.351,1.533C103.098,18.819,102.79,19.225,102.404,19.563z"></path>
        <path fill="#5D686D" d="M129.214,11.399h-1.278c-0.319,0-0.522,0.17-0.606,0.51l-3.174,17.879l-3.498-17.879
		c-0.086-0.34-0.285-0.51-0.607-0.51h-1.598c-0.34,0-0.554,0.17-0.638,0.51l-3.469,17.879l-3.203-17.879
		c-0.086-0.34-0.299-0.51-0.638-0.51h-1.342c-0.149,0-0.272,0.047-0.369,0.143c-0.094,0.095-0.121,0.218-0.078,0.367l4.097,20.242
		c0.043,0.146,0.123,0.277,0.24,0.385c0.118,0.103,0.252,0.156,0.399,0.156h1.598c0.148,0,0.283-0.053,0.4-0.156
		c0.114-0.108,0.194-0.239,0.237-0.385l3.47-17.848l3.528,17.848c0.043,0.146,0.123,0.277,0.24,0.385
		c0.116,0.103,0.252,0.156,0.399,0.156h1.598c0.15,0,0.275-0.053,0.382-0.156c0.108-0.108,0.183-0.239,0.226-0.385l4.098-20.242
		c0.045-0.149,0.021-0.272-0.063-0.367C129.477,11.446,129.36,11.399,129.214,11.399z"></path>
        <path fill="#5D686D" d="M55.016,60.934c0.084,0.354,0.215,0.663,0.393,0.928c0.178,0.265,0.409,0.474,0.693,0.628
		c0.283,0.153,0.625,0.23,1.024,0.23c0.351,0,0.644-0.042,0.879-0.125s0.422-0.161,0.563-0.231l-0.3-0.818
		c-0.043,0.032-0.101,0.071-0.174,0.117c-0.073,0.046-0.158,0.09-0.255,0.13c-0.097,0.041-0.207,0.074-0.328,0.102
		c-0.122,0.026-0.25,0.041-0.385,0.041c-0.205,0-0.386-0.061-0.542-0.179c-0.157-0.118-0.288-0.278-0.393-0.478
		c-0.105-0.2-0.186-0.427-0.239-0.681c-0.054-0.253-0.081-0.519-0.081-0.794c0-0.237,0.027-0.47,0.081-0.696
		c0.053-0.228,0.134-0.43,0.239-0.608c0.105-0.178,0.236-0.32,0.393-0.429c0.156-0.108,0.337-0.162,0.542-0.162
		c0.113,0,0.226,0.014,0.337,0.04c0.11,0.028,0.211,0.059,0.303,0.094c0.092,0.035,0.174,0.073,0.247,0.113
		c0.073,0.041,0.126,0.077,0.158,0.109l0.3-0.811c-0.032-0.021-0.089-0.051-0.17-0.089s-0.181-0.074-0.3-0.109
		c-0.119-0.034-0.252-0.065-0.401-0.093c-0.149-0.026-0.306-0.041-0.474-0.041c-0.346,0-0.656,0.073-0.932,0.219
		c-0.275,0.146-0.51,0.344-0.704,0.592c-0.194,0.249-0.343,0.533-0.445,0.854c-0.103,0.321-0.154,0.66-0.154,1.017
		C54.891,60.203,54.932,60.58,55.016,60.934z"></path>
        <path fill="#5D686D" d="M62.31,60.483c0-0.183-0.026-0.392-0.077-0.627c-0.051-0.234-0.14-0.455-0.267-0.659
		c-0.127-0.206-0.296-0.381-0.507-0.523c-0.21-0.143-0.475-0.215-0.793-0.215c-0.276,0-0.519,0.068-0.729,0.207
		c-0.211,0.137-0.386,0.308-0.527,0.51c-0.14,0.203-0.245,0.423-0.316,0.66c-0.07,0.238-0.105,0.454-0.105,0.647
		c0,0.243,0.026,0.497,0.077,0.763c0.051,0.264,0.141,0.506,0.271,0.725c0.13,0.218,0.309,0.398,0.539,0.539
		c0.229,0.14,0.522,0.21,0.879,0.21c0.173,0,0.339-0.014,0.498-0.041c0.159-0.026,0.304-0.058,0.434-0.093
		c0.129-0.034,0.24-0.071,0.332-0.109c0.091-0.038,0.159-0.067,0.202-0.089l-0.308-0.737c-0.038,0.032-0.093,0.068-0.166,0.109
		s-0.157,0.079-0.251,0.114c-0.095,0.035-0.199,0.065-0.312,0.093s-0.229,0.04-0.348,0.04c-0.162,0-0.303-0.039-0.421-0.117
		c-0.119-0.079-0.218-0.177-0.296-0.296s-0.137-0.25-0.174-0.393c-0.038-0.144-0.057-0.282-0.057-0.417h2.422V60.483z
		 M59.904,60.185c0.006-0.097,0.025-0.207,0.057-0.328c0.033-0.122,0.08-0.234,0.142-0.341c0.062-0.104,0.142-0.193,0.239-0.267
		c0.097-0.073,0.21-0.109,0.34-0.109s0.242,0.039,0.336,0.117c0.094,0.079,0.173,0.173,0.235,0.284
		c0.062,0.11,0.109,0.225,0.142,0.344c0.032,0.119,0.051,0.219,0.057,0.3H59.904z"></path>
        <path fill="#5D686D" d="M66.502,62.623v-2.738c0-0.157-0.023-0.319-0.069-0.486c-0.046-0.167-0.123-0.321-0.231-0.462
		c-0.107-0.14-0.248-0.255-0.42-0.344c-0.173-0.089-0.384-0.134-0.632-0.134c-0.125,0-0.245,0.027-0.361,0.081
		c-0.116,0.055-0.221,0.117-0.316,0.19c-0.094,0.073-0.171,0.145-0.231,0.215c-0.059,0.07-0.097,0.124-0.113,0.161v-0.55h-0.867
		v4.066h0.907v-2.73c0.006-0.054,0.033-0.12,0.081-0.198c0.049-0.078,0.11-0.153,0.183-0.227c0.073-0.073,0.156-0.135,0.251-0.187
		c0.094-0.052,0.193-0.076,0.295-0.076c0.103,0,0.194,0.022,0.272,0.067c0.078,0.047,0.143,0.106,0.194,0.179
		c0.051,0.073,0.089,0.155,0.113,0.247c0.025,0.093,0.037,0.182,0.037,0.268v2.657H66.502z"></path>
        <path fill="#5D686D" d="M67.932,62.063c0.038,0.125,0.101,0.234,0.191,0.333c0.089,0.097,0.202,0.175,0.34,0.234
		c0.137,0.06,0.309,0.089,0.514,0.089c0.151,0,0.306-0.02,0.466-0.061c0.159-0.041,0.271-0.074,0.336-0.102l-0.3-0.721
		c-0.032,0.021-0.09,0.05-0.174,0.085s-0.163,0.053-0.239,0.053c-0.06,0-0.106-0.014-0.142-0.04
		c-0.035-0.027-0.062-0.061-0.081-0.098c-0.019-0.038-0.032-0.08-0.04-0.126c-0.008-0.046-0.012-0.085-0.012-0.117v-2.293h0.842
		v-0.744h-0.842v-1.103h-0.915v1.103h-0.681v0.744h0.681v2.374C67.875,61.811,67.894,61.939,67.932,62.063z"></path>
        <path fill="#5D686D" d="M73.534,60.483c0-0.183-0.026-0.392-0.077-0.627c-0.051-0.234-0.14-0.455-0.267-0.659
		c-0.127-0.206-0.296-0.381-0.507-0.523c-0.21-0.143-0.475-0.215-0.793-0.215c-0.276,0-0.519,0.068-0.729,0.207
		c-0.211,0.137-0.386,0.308-0.527,0.51c-0.14,0.203-0.245,0.423-0.316,0.66c-0.07,0.238-0.105,0.454-0.105,0.647
		c0,0.243,0.026,0.497,0.077,0.763c0.051,0.264,0.141,0.506,0.271,0.725c0.13,0.218,0.309,0.398,0.539,0.539
		c0.229,0.14,0.522,0.21,0.879,0.21c0.173,0,0.339-0.014,0.498-0.041c0.159-0.026,0.304-0.058,0.434-0.093
		c0.129-0.034,0.24-0.071,0.332-0.109c0.091-0.038,0.159-0.067,0.202-0.089l-0.308-0.737c-0.038,0.032-0.093,0.068-0.166,0.109
		c-0.073,0.041-0.157,0.079-0.251,0.114c-0.095,0.035-0.199,0.065-0.312,0.093s-0.229,0.04-0.348,0.04
		c-0.162,0-0.303-0.039-0.421-0.117c-0.119-0.079-0.218-0.177-0.296-0.296s-0.137-0.25-0.174-0.393
		c-0.038-0.144-0.057-0.282-0.057-0.417h2.422V60.483z M71.128,60.185c0.006-0.097,0.025-0.207,0.057-0.328
		c0.033-0.122,0.08-0.234,0.142-0.341c0.062-0.104,0.142-0.193,0.239-0.267c0.097-0.073,0.21-0.109,0.34-0.109
		s0.242,0.039,0.336,0.117c0.094,0.079,0.173,0.173,0.235,0.284c0.062,0.11,0.109,0.225,0.142,0.344
		c0.032,0.119,0.051,0.219,0.057,0.3H71.128z"></path>
        <path fill="#5D686D" d="M74.487,58.556v4.067h0.907v-2.698c0.005-0.037,0.03-0.093,0.073-0.166s0.098-0.144,0.166-0.214
		c0.067-0.07,0.147-0.131,0.239-0.183c0.092-0.052,0.194-0.077,0.308-0.077c0.043,0,0.1,0.018,0.17,0.053
		c0.07,0.035,0.124,0.064,0.162,0.085l0.3-0.802c-0.033-0.032-0.103-0.067-0.211-0.105c-0.108-0.038-0.205-0.057-0.292-0.057
		c-0.14,0-0.266,0.028-0.376,0.085c-0.111,0.057-0.207,0.122-0.288,0.195c-0.081,0.072-0.146,0.144-0.194,0.214
		c-0.049,0.07-0.081,0.122-0.097,0.153v-0.551H74.487z"></path>
        <path fill="#5D686D" d="M80.785,57.665c0.045-0.091,0.13-0.138,0.255-0.138c0.092,0,0.177,0.018,0.255,0.053
		c0.078,0.035,0.131,0.064,0.158,0.085l0.3-0.721c-0.066-0.027-0.171-0.061-0.316-0.102c-0.146-0.04-0.305-0.061-0.478-0.061
		c-0.211,0-0.39,0.038-0.539,0.114c-0.149,0.075-0.268,0.173-0.36,0.291c-0.092,0.118-0.158,0.254-0.199,0.404
		c-0.04,0.152-0.06,0.304-0.06,0.454v0.51H79.12v0.745h0.681v3.322h0.915v-3.322h0.842v-0.745h-0.842v-0.591
		C80.716,57.857,80.739,57.757,80.785,57.665z"></path>
        <path fill="#5D686D" d="M82.474,61.918c0.136,0.227,0.317,0.417,0.543,0.571c0.227,0.153,0.52,0.23,0.875,0.23
		c0.346,0,0.633-0.078,0.86-0.234c0.226-0.157,0.408-0.349,0.547-0.575c0.136-0.228,0.234-0.471,0.291-0.729
		c0.056-0.26,0.085-0.491,0.085-0.696c0-0.194-0.032-0.409-0.093-0.645c-0.063-0.234-0.164-0.455-0.305-0.66
		c-0.139-0.205-0.323-0.377-0.551-0.514c-0.226-0.138-0.504-0.207-0.834-0.207c-0.307,0-0.574,0.069-0.796,0.207
		c-0.225,0.137-0.411,0.308-0.556,0.51c-0.146,0.203-0.253,0.421-0.319,0.656c-0.069,0.235-0.102,0.452-0.102,0.652
		c0,0.211,0.025,0.445,0.076,0.704C82.247,61.448,82.34,61.69,82.474,61.918z M83.091,60.075c0.026-0.148,0.073-0.287,0.137-0.417
		c0.065-0.13,0.152-0.237,0.26-0.324c0.108-0.086,0.242-0.13,0.404-0.13c0.163,0,0.297,0.046,0.406,0.138
		c0.108,0.092,0.194,0.204,0.258,0.336c0.066,0.133,0.113,0.273,0.143,0.421c0.029,0.149,0.044,0.277,0.044,0.386
		c0,0.146-0.012,0.305-0.036,0.478c-0.025,0.173-0.068,0.334-0.13,0.482s-0.148,0.273-0.259,0.377
		c-0.111,0.102-0.253,0.153-0.426,0.153c-0.172,0-0.312-0.053-0.42-0.157c-0.109-0.105-0.194-0.234-0.255-0.386
		c-0.063-0.15-0.106-0.313-0.13-0.485c-0.025-0.174-0.036-0.327-0.036-0.462C83.051,60.36,83.063,60.224,83.091,60.075z"></path>
        <path fill="#5D686D" d="M87.582,59.925c0.005-0.037,0.029-0.093,0.072-0.166s0.099-0.144,0.166-0.214
		c0.068-0.07,0.148-0.131,0.239-0.183c0.092-0.052,0.195-0.077,0.308-0.077c0.043,0,0.1,0.018,0.17,0.053
		c0.07,0.035,0.125,0.064,0.162,0.085L89,58.621c-0.033-0.032-0.104-0.067-0.211-0.105c-0.109-0.038-0.205-0.057-0.292-0.057
		c-0.141,0-0.267,0.028-0.376,0.085c-0.111,0.057-0.207,0.122-0.288,0.195c-0.081,0.072-0.146,0.144-0.195,0.214
		c-0.048,0.07-0.081,0.122-0.097,0.153v-0.551h-0.867v4.067h0.908V59.925z"></path>
        <path fill="#5D686D" d="M93.082,57.22l-1.831,5.403h0.956l0.421-1.394h1.928l0.429,1.394h0.989l-1.831-5.403H93.082z
		 M92.847,60.517l0.737-2.405l0.754,2.405H92.847z"></path>
        <path fill="#5D686D" d="M99.826,62.622V56.88H98.92v2.228c-0.027-0.049-0.068-0.11-0.125-0.183
		c-0.058-0.072-0.126-0.144-0.207-0.21c-0.081-0.067-0.173-0.127-0.272-0.179c-0.099-0.052-0.207-0.076-0.32-0.076
		c-0.241,0-0.463,0.059-0.659,0.178c-0.197,0.119-0.365,0.274-0.507,0.47c-0.14,0.194-0.248,0.412-0.323,0.652
		c-0.075,0.239-0.113,0.481-0.113,0.724c0,0.26,0.024,0.522,0.077,0.787c0.052,0.264,0.139,0.504,0.262,0.72
		c0.125,0.217,0.29,0.393,0.495,0.527s0.463,0.202,0.769,0.202c0.104,0,0.209-0.026,0.317-0.077c0.107-0.051,0.207-0.11,0.295-0.178
		c0.089-0.067,0.166-0.139,0.228-0.21c0.062-0.073,0.104-0.135,0.126-0.184v0.551H99.826z M98.92,61.286
		c-0.012,0.049-0.037,0.111-0.081,0.187c-0.043,0.075-0.101,0.15-0.17,0.227c-0.07,0.075-0.148,0.141-0.235,0.194
		c-0.086,0.054-0.176,0.081-0.268,0.081c-0.161,0-0.298-0.05-0.404-0.15c-0.108-0.1-0.195-0.224-0.261-0.372
		c-0.063-0.148-0.109-0.309-0.137-0.481c-0.026-0.173-0.041-0.335-0.041-0.487c0-0.161,0.021-0.318,0.058-0.469
		c0.038-0.151,0.094-0.288,0.166-0.409c0.072-0.122,0.159-0.219,0.264-0.292c0.102-0.073,0.22-0.109,0.355-0.109
		c0.098,0,0.189,0.028,0.275,0.085c0.086,0.058,0.164,0.126,0.231,0.207c0.066,0.081,0.123,0.163,0.166,0.247
		c0.044,0.083,0.069,0.149,0.081,0.198V61.286z"></path>
        <polygon fill="#5D686D" points="102.821,62.623 104.101,58.557 103.153,58.557 102.335,61.675 101.517,58.557 100.529,58.557
		101.808,62.623 	"></polygon>
        <path fill="#5D686D" d="M106.258,58.459c-0.18,0-0.353,0.02-0.521,0.057c-0.167,0.038-0.317,0.08-0.453,0.126
		c-0.135,0.046-0.25,0.091-0.344,0.134s-0.156,0.072-0.182,0.089l0.3,0.664c0.027-0.016,0.078-0.046,0.154-0.089
		c0.074-0.043,0.162-0.088,0.263-0.134c0.1-0.046,0.204-0.085,0.311-0.117c0.108-0.033,0.209-0.049,0.302-0.049
		c0.248,0,0.433,0.074,0.558,0.223c0.124,0.148,0.187,0.32,0.187,0.514v0.154l-0.704,0.146c-0.185,0.037-0.372,0.097-0.564,0.178
		c-0.191,0.081-0.367,0.182-0.526,0.304c-0.158,0.121-0.287,0.259-0.389,0.413c-0.1,0.154-0.148,0.323-0.148,0.506
		c0,0.341,0.112,0.616,0.34,0.827c0.226,0.21,0.543,0.315,0.946,0.315c0.142,0,0.274-0.026,0.398-0.081
		c0.124-0.054,0.233-0.116,0.328-0.187c0.094-0.07,0.173-0.142,0.239-0.215c0.063-0.072,0.104-0.128,0.12-0.166v0.551h0.835v-2.81
		c0-0.422-0.132-0.752-0.394-0.993C107.053,58.579,106.699,58.459,106.258,58.459z M106.832,61.343
		c-0.017,0.07-0.052,0.146-0.105,0.227c-0.053,0.081-0.12,0.157-0.198,0.227c-0.079,0.07-0.168,0.13-0.267,0.175
		c-0.101,0.046-0.201,0.068-0.305,0.068c-0.146,0-0.275-0.046-0.39-0.137c-0.113-0.092-0.17-0.222-0.17-0.39
		c0-0.081,0.026-0.16,0.078-0.238c0.051-0.078,0.118-0.15,0.202-0.215c0.084-0.065,0.179-0.122,0.288-0.17
		c0.107-0.05,0.219-0.087,0.332-0.113l0.534-0.122V61.343z"></path>
        <path fill="#5D686D" d="M112.082,62.623v-2.738c0-0.157-0.021-0.319-0.068-0.486c-0.045-0.167-0.123-0.321-0.231-0.462
		c-0.106-0.14-0.248-0.255-0.42-0.344c-0.173-0.089-0.384-0.134-0.632-0.134c-0.125,0-0.244,0.027-0.361,0.081
		c-0.116,0.055-0.221,0.117-0.314,0.19c-0.097,0.073-0.172,0.145-0.232,0.215c-0.059,0.07-0.096,0.124-0.113,0.161v-0.55h-0.866
		v4.066h0.906v-2.73c0.006-0.054,0.033-0.12,0.081-0.198c0.049-0.078,0.11-0.153,0.184-0.227c0.071-0.073,0.155-0.135,0.251-0.187
		c0.095-0.052,0.191-0.076,0.296-0.076c0.101,0,0.192,0.022,0.271,0.067c0.078,0.047,0.144,0.106,0.194,0.179
		c0.051,0.073,0.089,0.155,0.113,0.247c0.024,0.093,0.037,0.182,0.037,0.268v2.657H112.082z"></path>
        <path fill="#5D686D" d="M113.347,61.971c0.131,0.219,0.307,0.398,0.528,0.538c0.22,0.141,0.5,0.211,0.834,0.211
		c0.151,0,0.297-0.012,0.437-0.037c0.142-0.023,0.269-0.055,0.382-0.093c0.112-0.038,0.211-0.074,0.29-0.108
		c0.082-0.035,0.14-0.066,0.172-0.094l-0.301-0.77c-0.032,0.026-0.077,0.061-0.138,0.101c-0.059,0.041-0.129,0.08-0.211,0.118
		c-0.081,0.038-0.168,0.07-0.262,0.097c-0.096,0.027-0.188,0.041-0.28,0.041c-0.157,0-0.289-0.045-0.397-0.134
		c-0.107-0.089-0.197-0.205-0.271-0.348c-0.074-0.144-0.126-0.303-0.158-0.479c-0.033-0.176-0.049-0.353-0.049-0.53
		c0-0.151,0.019-0.305,0.057-0.458c0.037-0.153,0.093-0.291,0.162-0.413c0.071-0.121,0.158-0.22,0.264-0.295
		c0.104-0.076,0.224-0.114,0.352-0.114c0.082,0,0.166,0.014,0.256,0.041c0.088,0.027,0.174,0.058,0.254,0.093
		c0.082,0.035,0.153,0.07,0.211,0.105c0.061,0.035,0.099,0.063,0.113,0.085l0.3-0.762c-0.021-0.016-0.064-0.042-0.134-0.076
		c-0.067-0.035-0.152-0.07-0.254-0.105c-0.104-0.035-0.218-0.065-0.345-0.089c-0.127-0.025-0.261-0.037-0.401-0.037
		c-0.286,0-0.54,0.064-0.761,0.19c-0.222,0.127-0.407,0.291-0.556,0.49c-0.147,0.199-0.26,0.418-0.336,0.655
		c-0.075,0.238-0.112,0.468-0.112,0.689c0,0.248,0.026,0.504,0.08,0.766C113.127,61.512,113.218,61.752,113.347,61.971z"></path>
        <path fill="#5D686D" d="M119.806,60.483c0-0.183-0.026-0.392-0.077-0.627c-0.052-0.234-0.142-0.455-0.269-0.659
		c-0.127-0.206-0.295-0.381-0.506-0.523c-0.21-0.143-0.474-0.215-0.793-0.215c-0.276,0-0.519,0.068-0.729,0.207
		c-0.211,0.137-0.386,0.308-0.525,0.51c-0.141,0.203-0.246,0.423-0.317,0.66c-0.069,0.238-0.104,0.454-0.104,0.647
		c0,0.243,0.024,0.497,0.077,0.763c0.052,0.264,0.141,0.506,0.271,0.725c0.13,0.218,0.311,0.398,0.538,0.539
		c0.231,0.14,0.524,0.21,0.879,0.21c0.174,0,0.34-0.014,0.498-0.041c0.161-0.026,0.305-0.058,0.435-0.093
		c0.13-0.034,0.239-0.071,0.331-0.109c0.093-0.038,0.16-0.067,0.203-0.089l-0.308-0.737c-0.038,0.032-0.093,0.068-0.166,0.109
		s-0.157,0.079-0.25,0.114c-0.096,0.035-0.2,0.065-0.313,0.093c-0.112,0.027-0.229,0.04-0.348,0.04
		c-0.162,0-0.302-0.039-0.421-0.117c-0.12-0.079-0.217-0.177-0.295-0.296c-0.079-0.119-0.137-0.25-0.175-0.393
		c-0.038-0.144-0.058-0.282-0.058-0.417h2.423V60.483z M117.4,60.185c0.005-0.097,0.022-0.207,0.056-0.328
		c0.033-0.122,0.08-0.234,0.143-0.341c0.062-0.104,0.142-0.193,0.238-0.267c0.098-0.073,0.21-0.109,0.34-0.109
		s0.242,0.039,0.336,0.117c0.095,0.079,0.174,0.173,0.234,0.284c0.063,0.11,0.11,0.225,0.144,0.344
		c0.031,0.119,0.051,0.219,0.057,0.3H117.4z"></path>
        <path fill="#5D686D" d="M123.953,62.622V56.88h-0.906v2.228c-0.027-0.049-0.068-0.11-0.125-0.183
		c-0.058-0.072-0.126-0.144-0.207-0.21c-0.081-0.067-0.173-0.127-0.272-0.179c-0.099-0.052-0.207-0.076-0.32-0.076
		c-0.241,0-0.463,0.059-0.659,0.178c-0.197,0.119-0.365,0.274-0.507,0.47c-0.14,0.194-0.248,0.412-0.323,0.652
		c-0.075,0.239-0.113,0.481-0.113,0.724c0,0.26,0.025,0.522,0.077,0.787c0.052,0.264,0.139,0.504,0.262,0.72
		c0.125,0.217,0.29,0.393,0.495,0.527s0.463,0.202,0.769,0.202c0.104,0,0.209-0.026,0.317-0.077c0.107-0.051,0.207-0.11,0.295-0.178
		c0.089-0.067,0.166-0.139,0.228-0.21c0.062-0.073,0.104-0.135,0.126-0.184v0.551H123.953z M123.047,61.286
		c-0.012,0.049-0.037,0.111-0.081,0.187c-0.043,0.075-0.101,0.15-0.17,0.227c-0.07,0.075-0.148,0.141-0.235,0.194
		c-0.086,0.054-0.176,0.081-0.267,0.081c-0.162,0-0.299-0.05-0.405-0.15c-0.108-0.1-0.195-0.224-0.26-0.372s-0.11-0.309-0.138-0.481
		c-0.026-0.173-0.041-0.335-0.041-0.487c0-0.161,0.021-0.318,0.058-0.469c0.038-0.151,0.094-0.288,0.166-0.409
		c0.072-0.122,0.159-0.219,0.264-0.292c0.102-0.073,0.22-0.109,0.356-0.109c0.097,0,0.188,0.028,0.274,0.085
		c0.086,0.058,0.164,0.126,0.231,0.207c0.066,0.081,0.123,0.163,0.166,0.247c0.044,0.083,0.069,0.149,0.081,0.198V61.286z"></path>
        <path fill="#5D686D" d="M128.555,57.893c0.082,0,0.178,0.014,0.292,0.04s0.227,0.06,0.341,0.098
		c0.113,0.037,0.214,0.077,0.302,0.117c0.09,0.04,0.151,0.075,0.184,0.101l0.3-0.794c-0.037-0.021-0.104-0.051-0.195-0.088
		c-0.091-0.039-0.201-0.075-0.328-0.11c-0.127-0.034-0.266-0.065-0.421-0.093c-0.153-0.027-0.312-0.041-0.474-0.041
		c-0.264,0-0.503,0.039-0.717,0.118c-0.213,0.078-0.395,0.186-0.542,0.324c-0.15,0.138-0.264,0.301-0.342,0.489
		c-0.077,0.189-0.116,0.397-0.116,0.624c0,0.205,0.058,0.389,0.174,0.551c0.117,0.162,0.26,0.312,0.433,0.449
		c0.173,0.139,0.362,0.267,0.568,0.386c0.205,0.118,0.393,0.235,0.566,0.352c0.173,0.116,0.316,0.235,0.434,0.356
		c0.116,0.122,0.175,0.256,0.175,0.401c0,0.227-0.079,0.41-0.236,0.551c-0.156,0.141-0.369,0.211-0.639,0.211
		c-0.12,0-0.245-0.016-0.377-0.045c-0.133-0.029-0.258-0.064-0.377-0.105c-0.12-0.041-0.224-0.082-0.316-0.125
		c-0.092-0.043-0.152-0.082-0.186-0.114l-0.3,0.818c0.038,0.027,0.109,0.061,0.219,0.102c0.108,0.04,0.233,0.079,0.377,0.117
		c0.143,0.038,0.297,0.07,0.465,0.097c0.167,0.027,0.332,0.041,0.495,0.041c0.27,0,0.517-0.041,0.745-0.121
		c0.226-0.081,0.422-0.195,0.587-0.345c0.165-0.148,0.293-0.325,0.384-0.53c0.092-0.205,0.139-0.435,0.139-0.688
		c0-0.211-0.059-0.402-0.175-0.575c-0.115-0.173-0.263-0.331-0.437-0.474c-0.176-0.144-0.367-0.276-0.572-0.397
		s-0.395-0.238-0.57-0.352c-0.176-0.114-0.321-0.228-0.437-0.341c-0.118-0.113-0.175-0.232-0.175-0.356
		c0-0.2,0.061-0.357,0.186-0.474C128.111,57.95,128.301,57.893,128.555,57.893z"></path>
        <path fill="#5D686D" d="M131.237,57.454v1.103h-0.681v0.744h0.681v2.374c0,0.136,0.018,0.265,0.056,0.389
		c0.038,0.125,0.102,0.234,0.191,0.333c0.089,0.097,0.202,0.175,0.34,0.234c0.137,0.06,0.308,0.089,0.514,0.089
		c0.152,0,0.307-0.02,0.467-0.061c0.158-0.041,0.271-0.074,0.336-0.102l-0.301-0.721c-0.031,0.021-0.091,0.05-0.174,0.085
		c-0.084,0.035-0.163,0.053-0.238,0.053c-0.061,0-0.106-0.014-0.143-0.04c-0.035-0.027-0.061-0.061-0.081-0.098
		c-0.019-0.038-0.032-0.08-0.041-0.126c-0.007-0.046-0.011-0.085-0.011-0.117v-2.293h0.842v-0.744h-0.842v-1.103H131.237z"></path>
        <path fill="#5D686D" d="M133.791,58.557v2.697c0,0.188,0.022,0.371,0.067,0.547c0.047,0.176,0.122,0.331,0.228,0.466
		c0.104,0.135,0.242,0.244,0.41,0.328c0.167,0.083,0.372,0.125,0.614,0.125c0.13,0,0.251-0.027,0.364-0.081
		c0.114-0.054,0.214-0.117,0.3-0.19c0.086-0.072,0.159-0.144,0.22-0.215c0.059-0.069,0.1-0.124,0.121-0.162v0.552h0.866v-4.066
		h-0.906v2.729c-0.006,0.037-0.03,0.095-0.073,0.17s-0.103,0.152-0.174,0.23c-0.072,0.079-0.155,0.146-0.247,0.203
		s-0.189,0.085-0.292,0.085c-0.113,0-0.209-0.024-0.287-0.073s-0.14-0.11-0.183-0.186c-0.044-0.076-0.074-0.158-0.094-0.247
		c-0.019-0.089-0.027-0.175-0.027-0.256v-2.656H133.791z"></path>
        <path fill="#5D686D" d="M141.362,62.622V56.88h-0.907v2.228c-0.026-0.049-0.068-0.11-0.125-0.183
		c-0.058-0.072-0.125-0.144-0.207-0.21c-0.08-0.067-0.171-0.127-0.272-0.179c-0.099-0.052-0.206-0.076-0.319-0.076
		c-0.242,0-0.463,0.059-0.659,0.178c-0.197,0.119-0.366,0.274-0.508,0.47c-0.139,0.194-0.248,0.412-0.322,0.652
		c-0.075,0.239-0.113,0.481-0.113,0.724c0,0.26,0.025,0.522,0.077,0.787c0.051,0.264,0.138,0.504,0.262,0.72
		c0.124,0.217,0.29,0.393,0.495,0.527s0.462,0.202,0.769,0.202c0.104,0,0.208-0.026,0.316-0.077s0.207-0.11,0.296-0.178
		c0.088-0.067,0.165-0.139,0.228-0.21c0.062-0.073,0.104-0.135,0.125-0.184v0.551H141.362z M140.455,61.286
		c-0.011,0.049-0.037,0.111-0.08,0.187s-0.101,0.15-0.17,0.227c-0.07,0.075-0.148,0.141-0.235,0.194s-0.176,0.081-0.267,0.081
		c-0.162,0-0.299-0.05-0.406-0.15c-0.108-0.1-0.194-0.224-0.259-0.372s-0.11-0.309-0.139-0.481
		c-0.026-0.173-0.041-0.335-0.041-0.487c0-0.161,0.021-0.318,0.058-0.469c0.039-0.151,0.094-0.288,0.167-0.409
		c0.072-0.122,0.16-0.219,0.263-0.292s0.221-0.109,0.357-0.109c0.097,0,0.188,0.028,0.274,0.085
		c0.086,0.058,0.163,0.126,0.231,0.207c0.066,0.081,0.123,0.163,0.166,0.247c0.043,0.083,0.069,0.149,0.08,0.198V61.286z"></path>
        <rect x="142.511" y="58.556" fill="#5D686D" width="0.908" height="4.066"></rect>
        <path fill="#5D686D" d="M142.56,57.058c-0.112,0.108-0.17,0.24-0.17,0.397c0,0.156,0.058,0.289,0.17,0.396
		c0.113,0.108,0.249,0.162,0.405,0.162c0.158,0,0.292-0.054,0.406-0.162c0.113-0.107,0.17-0.24,0.17-0.396
		c0-0.157-0.057-0.289-0.17-0.397c-0.114-0.107-0.248-0.162-0.406-0.162C142.809,56.896,142.673,56.95,142.56,57.058z"></path>
        <path fill="#5D686D" d="M147.658,60.483c0-0.183-0.026-0.392-0.077-0.627c-0.053-0.234-0.142-0.455-0.269-0.659
		c-0.127-0.206-0.296-0.381-0.506-0.523c-0.211-0.143-0.475-0.215-0.794-0.215c-0.275,0-0.518,0.068-0.729,0.207
		c-0.21,0.137-0.387,0.308-0.526,0.51c-0.141,0.203-0.246,0.423-0.316,0.66c-0.069,0.238-0.104,0.454-0.104,0.647
		c0,0.243,0.024,0.497,0.077,0.763c0.051,0.264,0.141,0.506,0.27,0.725c0.13,0.218,0.311,0.398,0.539,0.539
		c0.23,0.14,0.523,0.21,0.879,0.21c0.173,0,0.339-0.014,0.498-0.041c0.16-0.026,0.304-0.058,0.435-0.093
		c0.13-0.034,0.239-0.071,0.332-0.109c0.092-0.038,0.158-0.067,0.201-0.089l-0.307-0.737c-0.039,0.032-0.093,0.068-0.166,0.109
		c-0.074,0.041-0.157,0.079-0.251,0.114c-0.095,0.035-0.199,0.065-0.312,0.093c-0.114,0.027-0.229,0.04-0.35,0.04
		c-0.162,0-0.302-0.039-0.42-0.117c-0.12-0.079-0.218-0.177-0.296-0.296c-0.079-0.119-0.137-0.25-0.174-0.393
		c-0.038-0.144-0.059-0.282-0.059-0.417h2.424V60.483z M145.252,60.185c0.006-0.097,0.023-0.207,0.056-0.328
		c0.033-0.122,0.08-0.234,0.143-0.341c0.063-0.104,0.142-0.193,0.238-0.267c0.099-0.073,0.211-0.109,0.34-0.109
		c0.131,0,0.242,0.039,0.338,0.117c0.094,0.079,0.172,0.173,0.233,0.284c0.063,0.11,0.11,0.225,0.143,0.344
		c0.031,0.119,0.052,0.219,0.057,0.3H145.252z"></path>
        <path fill="#5D686D" d="M149.706,62.04c-0.107,0-0.222-0.016-0.345-0.045c-0.121-0.029-0.237-0.064-0.347-0.102
		c-0.112-0.038-0.207-0.077-0.288-0.118c-0.081-0.04-0.138-0.07-0.17-0.093l-0.3,0.705c0.054,0.032,0.129,0.067,0.223,0.105
		s0.204,0.072,0.328,0.104c0.124,0.033,0.263,0.062,0.417,0.085c0.153,0.025,0.316,0.037,0.49,0.037
		c0.222,0,0.424-0.035,0.606-0.104c0.184-0.07,0.342-0.165,0.475-0.284c0.133-0.118,0.234-0.257,0.309-0.417
		c0.072-0.159,0.109-0.328,0.109-0.506c0-0.142-0.05-0.27-0.146-0.386c-0.097-0.115-0.217-0.225-0.361-0.328
		c-0.142-0.102-0.298-0.198-0.466-0.286c-0.167-0.091-0.322-0.177-0.465-0.261c-0.143-0.083-0.263-0.166-0.361-0.247
		c-0.097-0.081-0.145-0.161-0.145-0.242c0-0.151,0.051-0.278,0.154-0.381c0.103-0.103,0.244-0.153,0.429-0.153
		c0.087,0,0.175,0.013,0.267,0.04c0.092,0.026,0.179,0.058,0.259,0.093c0.081,0.035,0.153,0.07,0.216,0.106
		c0.062,0.034,0.104,0.063,0.126,0.085l0.3-0.682c-0.038-0.026-0.097-0.058-0.175-0.093s-0.169-0.069-0.272-0.101
		c-0.102-0.033-0.213-0.061-0.336-0.081c-0.121-0.022-0.247-0.033-0.376-0.033c-0.206,0-0.398,0.034-0.579,0.102
		s-0.338,0.159-0.47,0.275s-0.237,0.255-0.313,0.417c-0.074,0.162-0.112,0.338-0.112,0.527c0,0.146,0.047,0.278,0.141,0.399
		c0.095,0.122,0.212,0.235,0.353,0.341c0.142,0.105,0.295,0.202,0.463,0.291c0.167,0.09,0.32,0.177,0.462,0.261
		c0.139,0.084,0.258,0.164,0.351,0.242c0.095,0.078,0.143,0.16,0.143,0.247c0,0.146-0.059,0.263-0.175,0.349
		C150.008,61.996,149.868,62.04,149.706,62.04z"></path>
        <path fill="#5D686D" d="M147.247,15.606c0.496-0.804,1.099-1.456,1.808-1.952c0.709-0.497,1.528-0.747,2.463-0.747
		c0.908,0,1.726,0.143,2.459,0.429c0.729,0.286,1.242,0.545,1.539,0.778l0.666-1.969c-0.129-0.084-0.328-0.19-0.603-0.318
		c-0.276-0.125-0.608-0.252-1.002-0.379c-0.39-0.128-0.847-0.234-1.364-0.318c-0.519-0.085-1.082-0.127-1.695-0.127
		c-1.231,0-2.346,0.285-3.353,0.857c-1.004,0.572-1.868,1.34-2.588,2.301c-0.719,0.964-1.274,2.08-1.666,3.35
		c-0.39,1.268-0.588,2.602-0.588,4c0,1.46,0.155,2.878,0.461,4.253c0.31,1.376,0.789,2.598,1.446,3.666
		c0.656,1.07,1.504,1.922,2.541,2.555c1.035,0.636,2.285,0.954,3.746,0.954c1.181,0,2.19-0.149,3.029-0.445
		c0.437-0.156,1.381-0.525,1.381-0.525l-0.731-1.904c0,0-0.634,0.308-1.013,0.445c-0.383,0.138-0.801,0.253-1.256,0.349
		c-0.455,0.096-0.924,0.143-1.41,0.143c-0.976,0-1.823-0.275-2.541-0.825c-0.719-0.55-1.321-1.27-1.793-2.159
		c-0.479-0.889-0.836-1.899-1.08-3.032c-0.243-1.132-0.366-2.29-0.366-3.475c0-1.08,0.127-2.132,0.379-3.16
		C146.374,17.327,146.749,16.411,147.247,15.606z"></path>
        <path fill="#5D686D" d="M169.8,26.367l1.968,6.19h2.411l-7.141-21.174h-2.416l-7.138,21.174h2.315l1.937-6.19H169.8z
		 M165.768,13.638l3.522,10.983h-6.981L165.768,13.638z"></path>
        <path fill="#5D686D" d="M184.88,22.558c-0.69-0.571-1.435-1.106-2.239-1.603c-0.806-0.497-1.55-0.995-2.236-1.492
		c-0.688-0.497-1.267-1.005-1.731-1.525c-0.465-0.518-0.698-1.094-0.698-1.729c0-1.015,0.312-1.819,0.936-2.412
		c0.625-0.593,1.531-0.89,2.716-0.89c0.36,0,0.76,0.049,1.203,0.143c0.446,0.095,0.875,0.207,1.286,0.334
		c0.416,0.127,0.785,0.26,1.111,0.397c0.327,0.138,0.547,0.249,0.651,0.333l0.668-1.969c-0.127-0.063-0.354-0.158-0.685-0.285
		c-0.326-0.127-0.724-0.254-1.188-0.381c-0.467-0.126-0.965-0.238-1.494-0.333c-0.528-0.095-1.047-0.143-1.553-0.143
		c-0.89,0-1.707,0.143-2.444,0.429c-0.74,0.286-1.378,0.677-1.906,1.174c-0.53,0.498-0.94,1.085-1.237,1.762
		c-0.296,0.677-0.443,1.418-0.443,2.222c0,0.825,0.226,1.56,0.681,2.206c0.453,0.646,1.033,1.243,1.729,1.794
		c0.697,0.55,1.446,1.069,2.239,1.555c0.796,0.487,1.539,0.984,2.238,1.492c0.696,0.508,1.274,1.048,1.728,1.619
		c0.457,0.572,0.685,1.218,0.685,1.937c0,0.508-0.095,0.994-0.285,1.459c-0.192,0.467-0.472,0.874-0.842,1.222
		c-0.369,0.35-0.815,0.626-1.334,0.827c-0.521,0.201-1.106,0.301-1.761,0.301c-0.444,0-0.916-0.051-1.412-0.159
		c-0.498-0.106-0.965-0.233-1.396-0.38c-0.438-0.149-0.817-0.297-1.146-0.445c-0.065-0.029-0.252-0.12-0.252-0.12l-0.67,2.003
		c0,0,0.237,0.1,0.319,0.133c0.351,0.138,0.767,0.276,1.255,0.412c0.487,0.137,1.016,0.254,1.586,0.35
		c0.573,0.095,1.144,0.143,1.715,0.143c0.994,0,1.899-0.154,2.715-0.461c0.813-0.306,1.513-0.729,2.095-1.27
		c0.58-0.54,1.03-1.185,1.349-1.936c0.317-0.751,0.476-1.571,0.476-2.46c0-0.867-0.234-1.651-0.699-2.35
		C186.143,23.765,185.568,23.129,184.88,22.558z"></path>
        <path fill="#5D686D" d="M54.897,52.022h1.372c0.252,0,0.492-0.035,0.718-0.105c0.225-0.069,0.422-0.172,0.592-0.303
		c0.171-0.132,0.304-0.295,0.4-0.489c0.097-0.193,0.145-0.411,0.145-0.653c0-0.166-0.03-0.323-0.093-0.472
		c-0.062-0.147-0.145-0.277-0.249-0.391s-0.226-0.206-0.363-0.279c-0.137-0.071-0.282-0.122-0.432-0.148
		c0.107-0.032,0.219-0.084,0.334-0.157c0.116-0.073,0.222-0.162,0.32-0.266c0.096-0.105,0.177-0.225,0.242-0.356
		c0.064-0.131,0.096-0.271,0.096-0.414c0-0.232-0.044-0.433-0.134-0.602c-0.088-0.169-0.206-0.31-0.355-0.419
		c-0.147-0.111-0.318-0.193-0.516-0.247c-0.195-0.055-0.399-0.079-0.609-0.079h-1.468V52.022z M55.487,47.116h0.878
		c0.302,0,0.547,0.081,0.735,0.242c0.188,0.16,0.282,0.379,0.282,0.653c0,0.14-0.03,0.27-0.088,0.388
		c-0.06,0.118-0.137,0.219-0.235,0.306c-0.096,0.086-0.207,0.153-0.33,0.201c-0.124,0.05-0.253,0.074-0.387,0.074h-0.855V47.116z
		 M55.487,49.439h0.878c0.339,0,0.616,0.091,0.827,0.27c0.213,0.182,0.319,0.428,0.319,0.739c0,0.161-0.029,0.309-0.089,0.443
		c-0.058,0.135-0.14,0.25-0.245,0.348c-0.105,0.096-0.228,0.172-0.368,0.226c-0.14,0.054-0.288,0.08-0.444,0.08h-0.878V49.439z"></path>
        <path fill="#5D686D" d="M60.384,49.689c-0.157,0.032-0.325,0.087-0.504,0.161c-0.181,0.076-0.348,0.167-0.501,0.275
		c-0.153,0.106-0.28,0.234-0.379,0.379c-0.099,0.145-0.149,0.304-0.149,0.475c0,0.361,0.114,0.642,0.343,0.84
		c0.229,0.199,0.52,0.299,0.876,0.299c0.149,0,0.291-0.027,0.422-0.084c0.132-0.059,0.249-0.123,0.352-0.199
		c0.102-0.075,0.184-0.15,0.245-0.225c0.062-0.074,0.102-0.13,0.118-0.162v0.573h0.508v-2.8c0-0.44-0.123-0.776-0.367-1.006
		c-0.245-0.227-0.572-0.341-0.98-0.341c-0.141,0-0.279,0.016-0.416,0.048c-0.138,0.031-0.262,0.069-0.375,0.113
		c-0.113,0.042-0.21,0.083-0.29,0.121c-0.082,0.038-0.133,0.063-0.155,0.08l0.17,0.436c0.022-0.016,0.072-0.044,0.149-0.084
		c0.079-0.041,0.166-0.081,0.263-0.122s0.199-0.076,0.307-0.109c0.107-0.031,0.204-0.047,0.29-0.047c0.29,0,0.507,0.091,0.65,0.271
		c0.142,0.18,0.213,0.401,0.213,0.665v0.266L60.384,49.689z M61.174,50.908c-0.027,0.08-0.073,0.165-0.137,0.254
		c-0.064,0.089-0.144,0.172-0.238,0.251c-0.094,0.076-0.199,0.141-0.314,0.192c-0.116,0.053-0.236,0.076-0.359,0.076
		c-0.199,0-0.368-0.063-0.505-0.193c-0.137-0.127-0.206-0.307-0.206-0.531c0-0.113,0.035-0.219,0.105-0.315
		c0.07-0.098,0.157-0.183,0.262-0.258c0.105-0.076,0.223-0.14,0.352-0.193c0.129-0.055,0.25-0.096,0.362-0.121l0.678-0.146V50.908z"></path>
        <path fill="#5D686D" d="M62.938,49.17c-0.073,0.238-0.109,0.479-0.109,0.722c0,0.264,0.028,0.529,0.084,0.795
		c0.057,0.266,0.147,0.505,0.271,0.717c0.124,0.213,0.282,0.385,0.475,0.518c0.194,0.132,0.432,0.196,0.711,0.196
		c0.119,0,0.234-0.026,0.351-0.084c0.115-0.057,0.221-0.123,0.315-0.197c0.094-0.075,0.17-0.15,0.228-0.227
		c0.06-0.074,0.099-0.128,0.114-0.161v0.574h0.525v-5.722h-0.557v2.234c-0.022-0.042-0.061-0.1-0.117-0.173
		c-0.056-0.073-0.128-0.146-0.214-0.217c-0.086-0.073-0.185-0.137-0.294-0.191c-0.11-0.053-0.227-0.08-0.351-0.08
		c-0.232,0-0.443,0.061-0.634,0.179c-0.19,0.118-0.354,0.273-0.488,0.468C63.113,48.715,63.01,48.93,62.938,49.17z M63.481,49.286
		c0.049-0.188,0.117-0.354,0.206-0.496c0.09-0.143,0.195-0.255,0.319-0.335c0.122-0.081,0.263-0.12,0.42-0.12
		c0.128,0,0.246,0.034,0.354,0.104s0.202,0.15,0.283,0.241c0.079,0.093,0.145,0.181,0.194,0.271
		c0.047,0.089,0.076,0.155,0.088,0.198v1.742c-0.012,0.043-0.042,0.105-0.093,0.189c-0.051,0.084-0.117,0.168-0.199,0.255
		c-0.079,0.085-0.175,0.161-0.285,0.226c-0.11,0.064-0.225,0.096-0.342,0.096c-0.189,0-0.349-0.055-0.477-0.17
		c-0.129-0.11-0.234-0.254-0.314-0.426c-0.082-0.173-0.138-0.363-0.173-0.574c-0.035-0.209-0.053-0.409-0.053-0.596
		C63.409,49.677,63.433,49.475,63.481,49.286z"></path>
        <path fill="#5D686D" d="M69.888,49.892c0-0.215-0.027-0.441-0.078-0.678c-0.051-0.236-0.133-0.454-0.249-0.653
		c-0.116-0.2-0.268-0.363-0.456-0.492c-0.189-0.13-0.419-0.193-0.695-0.193c-0.246,0-0.464,0.066-0.648,0.2
		c-0.186,0.136-0.343,0.304-0.468,0.506c-0.126,0.201-0.222,0.42-0.287,0.656c-0.065,0.237-0.097,0.454-0.097,0.654
		c0,0.253,0.024,0.509,0.072,0.771c0.049,0.26,0.134,0.5,0.255,0.716c0.121,0.219,0.283,0.396,0.488,0.534
		c0.204,0.137,0.465,0.204,0.783,0.204c0.149,0,0.294-0.011,0.431-0.035c0.137-0.023,0.261-0.054,0.371-0.084
		c0.111-0.033,0.205-0.065,0.283-0.098c0.077-0.033,0.133-0.057,0.165-0.073l-0.169-0.467c-0.044,0.025-0.1,0.057-0.169,0.091
		c-0.071,0.035-0.153,0.069-0.246,0.103c-0.095,0.033-0.197,0.06-0.308,0.085c-0.109,0.022-0.221,0.037-0.335,0.037
		c-0.188,0-0.349-0.053-0.484-0.158c-0.134-0.104-0.245-0.238-0.331-0.396c-0.086-0.159-0.147-0.33-0.189-0.514
		c-0.041-0.181-0.06-0.354-0.06-0.516h2.421V49.892z M67.483,49.689c0-0.134,0.02-0.281,0.061-0.439
		c0.041-0.159,0.098-0.308,0.172-0.447c0.077-0.14,0.173-0.257,0.292-0.352c0.118-0.095,0.255-0.141,0.411-0.141
		c0.166,0,0.309,0.049,0.427,0.148c0.119,0.101,0.214,0.22,0.287,0.36c0.073,0.14,0.127,0.289,0.162,0.451
		c0.035,0.161,0.052,0.301,0.052,0.419H67.483z"></path>
        <path fill="#5D686D" d="M73.946,49.237c0-0.166-0.028-0.331-0.082-0.496c-0.054-0.163-0.132-0.312-0.237-0.439
		c-0.105-0.129-0.239-0.231-0.399-0.312c-0.162-0.076-0.35-0.115-0.566-0.115c-0.139,0-0.271,0.028-0.395,0.088
		c-0.123,0.06-0.234,0.126-0.331,0.201c-0.096,0.076-0.174,0.151-0.234,0.223c-0.059,0.072-0.094,0.122-0.105,0.149v-0.565h-0.532
		v4.052h0.557v-2.922c0.005-0.054,0.037-0.123,0.092-0.21c0.057-0.086,0.129-0.17,0.218-0.255c0.09-0.083,0.191-0.153,0.307-0.213
		c0.116-0.059,0.236-0.089,0.359-0.089c0.129,0,0.244,0.03,0.343,0.089c0.098,0.06,0.182,0.137,0.246,0.23
		c0.064,0.095,0.115,0.198,0.149,0.313c0.036,0.117,0.052,0.228,0.052,0.335v2.721h0.558V49.237z"></path>
        <rect x="75.163" y="49.318" fill="#5D686D" width="1.694" height="0.5"></rect>
        <polygon fill="#5D686D" points="82.48,52.022 83.722,46.641 83.134,46.641 82.166,51.288 81.012,46.641 80.359,46.641
		79.213,51.288 78.237,46.641 77.617,46.641 78.857,52.022 79.52,52.022 80.666,47.375 81.828,52.022 	"></polygon>
        <path fill="#5D686D" d="M85.07,47.136c0.07,0.072,0.16,0.109,0.265,0.109c0.11,0,0.2-0.037,0.272-0.109
		c0.072-0.072,0.109-0.159,0.109-0.262s-0.037-0.189-0.109-0.262c-0.072-0.073-0.162-0.108-0.272-0.108
		c-0.105,0-0.195,0.035-0.265,0.108c-0.069,0.072-0.106,0.159-0.106,0.262S85.001,47.063,85.07,47.136z"></path>
        <path fill="#5D686D" d="M86.458,46.612c-0.07,0.072-0.105,0.159-0.105,0.262s0.035,0.189,0.105,0.262
		c0.069,0.072,0.157,0.109,0.266,0.109c0.108,0,0.197-0.037,0.27-0.109c0.074-0.072,0.109-0.159,0.109-0.262
		s-0.035-0.189-0.109-0.262c-0.073-0.073-0.162-0.108-0.27-0.108C86.615,46.504,86.527,46.539,86.458,46.612z"></path>
        <path fill="#5D686D" d="M86.269,52.029c0.121-0.059,0.227-0.127,0.316-0.201c0.092-0.077,0.166-0.151,0.225-0.225
		c0.055-0.077,0.092-0.128,0.107-0.155v0.574h0.524v-4.052h-0.557v2.92c-0.004,0.032-0.033,0.093-0.082,0.179
		c-0.053,0.086-0.121,0.172-0.209,0.258c-0.086,0.087-0.183,0.162-0.295,0.229c-0.113,0.067-0.236,0.102-0.365,0.102
		c-0.141,0-0.26-0.029-0.355-0.085c-0.096-0.056-0.172-0.129-0.235-0.218c-0.058-0.088-0.101-0.19-0.133-0.308
		c-0.029-0.115-0.044-0.233-0.044-0.357v-2.72h-0.555v2.768c0,0.177,0.023,0.35,0.072,0.517c0.049,0.166,0.125,0.314,0.225,0.439
		c0.103,0.126,0.232,0.229,0.392,0.307c0.158,0.077,0.346,0.117,0.571,0.117C86.015,52.118,86.148,52.089,86.269,52.029z"></path>
        <path fill="#5D686D" d="M89.32,49.108c0.011-0.038,0.041-0.095,0.086-0.174c0.044-0.077,0.107-0.157,0.181-0.237
		c0.076-0.081,0.16-0.152,0.258-0.214s0.199-0.092,0.307-0.092c0.048,0,0.107,0.014,0.17,0.044c0.066,0.028,0.113,0.052,0.146,0.069
		l0.168-0.51c-0.031-0.026-0.09-0.054-0.172-0.081c-0.086-0.026-0.16-0.04-0.232-0.04c-0.139,0-0.266,0.029-0.375,0.09
		c-0.11,0.059-0.205,0.127-0.285,0.204c-0.081,0.079-0.145,0.153-0.19,0.227c-0.047,0.072-0.076,0.12-0.086,0.141v-0.564h-0.533
		v4.052h0.557V49.108z"></path>
        <path fill="#5D686D" d="M91.896,46.874v1.097h-0.677v0.459h0.677v2.801c0,0.113,0.014,0.223,0.045,0.33
		c0.028,0.108,0.077,0.203,0.145,0.288c0.066,0.082,0.154,0.148,0.266,0.196c0.109,0.049,0.246,0.073,0.408,0.073
		c0.054,0,0.113-0.006,0.179-0.017c0.069-0.01,0.133-0.021,0.192-0.032c0.056-0.011,0.112-0.022,0.16-0.035
		c0.049-0.014,0.084-0.026,0.104-0.037l-0.166-0.46c-0.036,0.021-0.098,0.048-0.188,0.076c-0.09,0.029-0.174,0.044-0.25,0.044
		c-0.123,0-0.211-0.052-0.264-0.156c-0.05-0.105-0.076-0.213-0.076-0.327V48.43h0.801v-0.459h-0.801v-1.097H91.896z"></path>
        <path fill="#5D686D" d="M96.146,51.997l-0.17-0.46c-0.032,0.021-0.094,0.048-0.185,0.076c-0.092,0.029-0.176,0.044-0.252,0.044
		c-0.123,0-0.209-0.052-0.26-0.156c-0.052-0.105-0.078-0.213-0.078-0.327V48.43h0.797v-0.459h-0.797v-1.097h-0.555v1.097h-0.681
		v0.459h0.681v2.801c0,0.113,0.014,0.223,0.043,0.33c0.03,0.108,0.077,0.203,0.146,0.288c0.067,0.082,0.155,0.148,0.268,0.196
		c0.109,0.049,0.246,0.073,0.406,0.073c0.053,0,0.114-0.006,0.181-0.017c0.067-0.01,0.131-0.021,0.19-0.032
		c0.058-0.011,0.112-0.022,0.161-0.035C96.092,52.021,96.124,52.008,96.146,51.997z"></path>
        <path fill="#5D686D" d="M99.873,49.892c0-0.215-0.026-0.441-0.076-0.678c-0.051-0.236-0.135-0.454-0.25-0.653
		c-0.114-0.2-0.266-0.363-0.455-0.492c-0.188-0.13-0.42-0.193-0.694-0.193c-0.248,0-0.465,0.066-0.649,0.2
		c-0.187,0.136-0.342,0.304-0.467,0.506c-0.128,0.201-0.222,0.42-0.287,0.656c-0.065,0.237-0.099,0.454-0.099,0.654
		c0,0.253,0.024,0.509,0.074,0.771c0.047,0.26,0.133,0.5,0.254,0.716c0.12,0.219,0.284,0.396,0.487,0.534
		c0.207,0.137,0.466,0.204,0.785,0.204c0.149,0,0.295-0.011,0.43-0.035c0.138-0.023,0.261-0.054,0.371-0.084
		c0.111-0.033,0.205-0.065,0.283-0.098c0.076-0.033,0.133-0.057,0.164-0.073l-0.168-0.467c-0.043,0.025-0.101,0.057-0.168,0.091
		c-0.072,0.035-0.152,0.069-0.248,0.103c-0.095,0.033-0.197,0.06-0.31,0.085c-0.106,0.022-0.218,0.037-0.332,0.037
		c-0.188,0-0.349-0.053-0.483-0.158c-0.136-0.104-0.244-0.238-0.33-0.396c-0.086-0.159-0.151-0.33-0.19-0.514
		c-0.041-0.181-0.06-0.354-0.06-0.516h2.418V49.892z M97.47,49.689c0-0.134,0.021-0.281,0.062-0.439
		c0.038-0.159,0.098-0.308,0.174-0.447c0.073-0.14,0.172-0.257,0.289-0.352c0.118-0.095,0.256-0.141,0.412-0.141
		c0.168,0,0.309,0.049,0.426,0.148c0.119,0.101,0.217,0.22,0.289,0.36c0.069,0.14,0.125,0.289,0.16,0.451
		c0.034,0.161,0.053,0.301,0.053,0.419H97.47z"></path>
        <path fill="#5D686D" d="M104.713,48.334c0.137,0,0.252,0.028,0.349,0.085c0.098,0.057,0.174,0.13,0.229,0.222
		c0.057,0.093,0.098,0.195,0.127,0.311c0.026,0.116,0.039,0.233,0.039,0.351v2.721h0.557v-2.785c0-0.166-0.021-0.331-0.062-0.496
		c-0.039-0.163-0.108-0.312-0.205-0.439c-0.1-0.129-0.225-0.231-0.385-0.312c-0.155-0.076-0.351-0.115-0.584-0.115
		c-0.162,0-0.308,0.028-0.438,0.088c-0.133,0.06-0.244,0.126-0.34,0.201c-0.095,0.076-0.171,0.151-0.226,0.223
		c-0.056,0.072-0.093,0.122-0.108,0.149c-0.021-0.043-0.054-0.101-0.097-0.174c-0.043-0.072-0.108-0.146-0.192-0.218
		c-0.089-0.072-0.195-0.137-0.328-0.19c-0.131-0.052-0.297-0.079-0.496-0.079c-0.151,0-0.285,0.028-0.409,0.088
		c-0.121,0.06-0.224,0.128-0.306,0.205c-0.082,0.08-0.151,0.154-0.201,0.227c-0.049,0.072-0.084,0.119-0.103,0.142v-0.565h-0.53
		v4.052h0.557v-2.922c0.009-0.054,0.041-0.123,0.087-0.21c0.051-0.086,0.114-0.17,0.196-0.255c0.078-0.083,0.175-0.153,0.285-0.213
		c0.11-0.059,0.228-0.089,0.358-0.089c0.147,0,0.267,0.028,0.36,0.085c0.093,0.057,0.17,0.13,0.224,0.222
		c0.06,0.093,0.101,0.195,0.121,0.311c0.026,0.116,0.037,0.233,0.037,0.351v2.721h0.557v-2.986c0.005-0.059,0.031-0.129,0.082-0.21
		c0.048-0.08,0.109-0.157,0.19-0.229c0.076-0.072,0.169-0.136,0.281-0.187C104.448,48.359,104.573,48.334,104.713,48.334z"></path>
        <path fill="#5D686D" d="M107.387,46.301v5.632c0.047,0.01,0.127,0.026,0.239,0.048c0.113,0.022,0.232,0.043,0.363,0.064
		c0.129,0.021,0.258,0.039,0.383,0.053c0.127,0.014,0.231,0.02,0.312,0.02c0.291,0,0.547-0.066,0.765-0.2
		c0.222-0.136,0.409-0.309,0.558-0.521c0.149-0.212,0.266-0.45,0.34-0.713c0.074-0.264,0.112-0.527,0.112-0.791
		c0-0.226-0.028-0.458-0.086-0.698c-0.055-0.238-0.144-0.456-0.269-0.649s-0.282-0.354-0.478-0.48
		c-0.192-0.127-0.428-0.188-0.7-0.188c-0.125,0-0.242,0.026-0.356,0.084c-0.111,0.057-0.212,0.122-0.3,0.198
		c-0.09,0.074-0.164,0.149-0.219,0.222c-0.056,0.072-0.095,0.126-0.109,0.156v-2.234H107.387z M108.038,48.906
		c0.06-0.085,0.132-0.17,0.22-0.254c0.084-0.083,0.18-0.157,0.284-0.222c0.106-0.063,0.212-0.096,0.318-0.096
		c0.178,0,0.331,0.047,0.457,0.141c0.125,0.094,0.231,0.216,0.315,0.367c0.082,0.15,0.142,0.317,0.185,0.504
		c0.04,0.186,0.062,0.367,0.062,0.545c0,0.187-0.027,0.387-0.08,0.596c-0.058,0.211-0.134,0.401-0.234,0.574
		c-0.104,0.172-0.227,0.314-0.377,0.426c-0.149,0.115-0.317,0.17-0.504,0.17c-0.055,0-0.117-0.003-0.194-0.012
		c-0.074-0.007-0.147-0.016-0.22-0.022c-0.075-0.01-0.141-0.018-0.203-0.029c-0.061-0.01-0.104-0.022-0.125-0.033v-2.46
		C107.944,49.058,107.979,48.993,108.038,48.906z"></path>
        <path fill="#5D686D" d="M112.896,52.117c0.149,0,0.293-0.011,0.43-0.035c0.14-0.023,0.261-0.054,0.373-0.084
		c0.109-0.033,0.205-0.065,0.281-0.098c0.078-0.033,0.133-0.057,0.164-0.073l-0.168-0.467c-0.041,0.025-0.101,0.057-0.17,0.091
		c-0.07,0.035-0.148,0.069-0.246,0.103c-0.095,0.033-0.195,0.06-0.308,0.085c-0.108,0.022-0.22,0.037-0.334,0.037
		c-0.187,0-0.349-0.053-0.483-0.158c-0.136-0.104-0.244-0.238-0.33-0.396c-0.084-0.159-0.149-0.33-0.19-0.514
		c-0.039-0.181-0.06-0.354-0.06-0.516h2.42v-0.201c0-0.215-0.026-0.441-0.076-0.678c-0.053-0.236-0.137-0.454-0.25-0.653
		c-0.118-0.2-0.268-0.363-0.455-0.492c-0.19-0.13-0.42-0.193-0.694-0.193c-0.248,0-0.467,0.066-0.649,0.2
		c-0.187,0.136-0.344,0.304-0.469,0.506c-0.128,0.201-0.224,0.42-0.287,0.656c-0.065,0.237-0.097,0.454-0.097,0.654
		c0,0.253,0.024,0.509,0.071,0.771c0.048,0.26,0.134,0.5,0.257,0.716c0.12,0.219,0.284,0.396,0.487,0.534
		C112.316,52.05,112.578,52.117,112.896,52.117z M111.932,49.25c0.04-0.159,0.1-0.308,0.174-0.447
		c0.073-0.14,0.172-0.257,0.291-0.352c0.116-0.095,0.254-0.141,0.41-0.141c0.165,0,0.311,0.049,0.428,0.148
		c0.119,0.101,0.217,0.22,0.287,0.36c0.071,0.14,0.127,0.289,0.162,0.451c0.03,0.161,0.049,0.301,0.049,0.419h-1.861
		C111.871,49.556,111.893,49.408,111.932,49.25z"></path>
        <path fill="#5D686D" d="M116.228,48.697c0.074-0.081,0.16-0.152,0.259-0.214c0.096-0.062,0.198-0.092,0.307-0.092
		c0.046,0,0.105,0.014,0.169,0.044c0.063,0.028,0.112,0.052,0.143,0.069l0.171-0.51c-0.031-0.026-0.089-0.054-0.175-0.081
		c-0.082-0.026-0.157-0.04-0.226-0.04c-0.141,0-0.268,0.029-0.377,0.09c-0.112,0.059-0.205,0.127-0.288,0.204
		c-0.08,0.079-0.142,0.153-0.187,0.227c-0.048,0.072-0.076,0.12-0.089,0.141v-0.564h-0.53v4.052h0.558v-2.914
		c0.01-0.038,0.038-0.095,0.084-0.174C116.091,48.857,116.152,48.777,116.228,48.697z"></path>
        <path fill="#5D686D" d="M120.523,53.489c0.147-0.119,0.261-0.247,0.343-0.387c0.08-0.14,0.123-0.279,0.123-0.419
		c0-0.184-0.048-0.347-0.138-0.489c-0.094-0.142-0.215-0.263-0.373-0.361c-0.157-0.102-0.336-0.176-0.541-0.228
		c-0.203-0.051-0.414-0.076-0.635-0.076c-0.175,0-0.316-0.039-0.425-0.113c-0.112-0.074-0.168-0.173-0.168-0.29
		c0-0.049,0.022-0.096,0.062-0.143c0.041-0.045,0.091-0.084,0.149-0.116c0.06-0.031,0.123-0.059,0.19-0.079
		c0.066-0.022,0.132-0.033,0.191-0.033c0.196,0,0.383-0.039,0.555-0.117c0.171-0.078,0.32-0.185,0.443-0.319
		c0.123-0.134,0.221-0.292,0.293-0.471c0.067-0.181,0.103-0.373,0.103-0.577c0-0.113-0.013-0.219-0.039-0.319
		c-0.027-0.099-0.058-0.188-0.095-0.267c-0.034-0.077-0.071-0.143-0.11-0.197c-0.037-0.053-0.065-0.094-0.088-0.12h0.672v-0.396
		h-1.146c-0.049-0.016-0.127-0.035-0.24-0.061c-0.108-0.024-0.227-0.035-0.348-0.035c-0.195,0-0.377,0.04-0.548,0.12
		c-0.168,0.08-0.315,0.187-0.44,0.319c-0.129,0.131-0.228,0.281-0.301,0.448c-0.072,0.166-0.108,0.336-0.108,0.508
		c0,0.231,0.03,0.428,0.088,0.593c0.06,0.163,0.135,0.302,0.224,0.411c0.09,0.111,0.182,0.196,0.276,0.257
		c0.099,0.063,0.183,0.108,0.258,0.135c-0.043,0.011-0.096,0.032-0.155,0.064c-0.063,0.032-0.123,0.072-0.183,0.122
		c-0.058,0.047-0.108,0.104-0.153,0.164c-0.041,0.063-0.064,0.125-0.064,0.19c0,0.097,0.023,0.179,0.068,0.25
		c0.047,0.069,0.099,0.127,0.162,0.169c0.061,0.043,0.127,0.076,0.19,0.102c0.063,0.022,0.114,0.038,0.151,0.043
		c-0.076,0.007-0.17,0.032-0.289,0.078c-0.119,0.045-0.235,0.108-0.346,0.19c-0.115,0.078-0.212,0.18-0.296,0.301
		c-0.086,0.121-0.125,0.26-0.125,0.416c0,0.16,0.039,0.311,0.121,0.447c0.08,0.138,0.19,0.255,0.33,0.355
		c0.142,0.1,0.308,0.179,0.504,0.237c0.197,0.059,0.408,0.09,0.636,0.09c0.252,0,0.481-0.037,0.688-0.11
		C120.198,53.703,120.374,53.607,120.523,53.489z M118.655,50.028c-0.063-0.096-0.111-0.211-0.14-0.343
		c-0.031-0.131-0.047-0.269-0.047-0.415c0-0.129,0.019-0.253,0.057-0.372c0.041-0.118,0.093-0.223,0.164-0.314
		c0.068-0.091,0.156-0.164,0.261-0.217c0.106-0.054,0.221-0.082,0.353-0.082c0.258,0,0.461,0.091,0.606,0.271
		c0.149,0.18,0.224,0.418,0.224,0.714c0,0.124-0.015,0.249-0.044,0.374c-0.03,0.126-0.079,0.242-0.147,0.344
		c-0.067,0.102-0.153,0.188-0.258,0.254c-0.104,0.067-0.231,0.101-0.381,0.101c-0.158,0-0.289-0.028-0.394-0.084
		C118.807,50.201,118.721,50.126,118.655,50.028z M119.303,53.466c-0.158,0-0.302-0.022-0.431-0.065s-0.237-0.101-0.33-0.173
		c-0.092-0.072-0.164-0.157-0.213-0.25c-0.051-0.095-0.078-0.192-0.078-0.294c0-0.103,0.031-0.198,0.091-0.288
		c0.059-0.088,0.137-0.164,0.233-0.229c0.096-0.064,0.205-0.116,0.334-0.154c0.125-0.037,0.256-0.056,0.394-0.056
		c0.319,0,0.588,0.067,0.803,0.207c0.209,0.137,0.315,0.31,0.315,0.52c0,0.095-0.026,0.192-0.084,0.285
		c-0.057,0.095-0.135,0.177-0.235,0.251c-0.104,0.072-0.224,0.131-0.356,0.177C119.611,53.441,119.462,53.466,119.303,53.466z"></path>
        <path fill="#5D686D" d="M54.897,43.163h1.282c0.334,0,0.644-0.072,0.928-0.219c0.285-0.145,0.532-0.343,0.738-0.597
		c0.207-0.252,0.371-0.55,0.489-0.892c0.118-0.342,0.177-0.708,0.177-1.101c0-0.403-0.061-0.763-0.184-1.081
		c-0.124-0.318-0.296-0.586-0.518-0.807c-0.22-0.221-0.479-0.39-0.777-0.508c-0.299-0.119-0.621-0.178-0.965-0.178h-1.17V43.163z
		 M55.487,38.258h0.661c0.231,0,0.453,0.049,0.665,0.146c0.213,0.096,0.399,0.235,0.56,0.414c0.163,0.182,0.292,0.4,0.388,0.658
		s0.146,0.553,0.146,0.88c0,0.328-0.046,0.633-0.134,0.916c-0.089,0.282-0.211,0.528-0.367,0.738
		c-0.156,0.21-0.34,0.374-0.553,0.495c-0.213,0.121-0.439,0.183-0.682,0.183h-0.684V38.258z"></path>
        <path fill="#5D686D" d="M59.472,39.113v2.766c0,0.179,0.024,0.351,0.073,0.519c0.048,0.166,0.124,0.313,0.226,0.438
		c0.102,0.127,0.232,0.229,0.39,0.309c0.16,0.076,0.349,0.115,0.57,0.115c0.145,0,0.278-0.028,0.398-0.088
		c0.122-0.059,0.228-0.127,0.319-0.201c0.092-0.075,0.166-0.152,0.223-0.227c0.056-0.075,0.092-0.126,0.108-0.152v0.572h0.524v-4.05
		h-0.556v2.92c-0.005,0.033-0.033,0.091-0.084,0.177c-0.051,0.086-0.12,0.172-0.207,0.258c-0.085,0.088-0.185,0.163-0.298,0.23
		c-0.113,0.066-0.234,0.101-0.363,0.101c-0.14,0-0.258-0.027-0.355-0.085c-0.097-0.055-0.175-0.127-0.235-0.217
		c-0.058-0.088-0.103-0.19-0.132-0.307c-0.03-0.115-0.044-0.234-0.044-0.359v-2.718H59.472z"></path>
        <path fill="#5D686D" d="M64.925,40.831c-0.157,0.032-0.325,0.087-0.504,0.161c-0.18,0.076-0.348,0.166-0.501,0.275
		c-0.153,0.106-0.28,0.234-0.378,0.379c-0.1,0.145-0.149,0.303-0.149,0.475c0,0.361,0.114,0.642,0.342,0.841
		c0.229,0.199,0.521,0.298,0.876,0.298c0.15,0,0.291-0.028,0.423-0.084c0.131-0.058,0.248-0.123,0.35-0.198
		c0.103-0.075,0.185-0.151,0.247-0.226c0.061-0.075,0.101-0.13,0.117-0.161v0.572h0.509v-2.801c0-0.439-0.123-0.774-0.368-1.004
		c-0.244-0.228-0.572-0.342-0.98-0.342c-0.141,0-0.279,0.016-0.416,0.048c-0.138,0.032-0.261,0.07-0.375,0.114
		c-0.113,0.042-0.209,0.083-0.29,0.12c-0.081,0.038-0.133,0.063-0.154,0.081l0.17,0.436c0.021-0.017,0.072-0.046,0.149-0.085
		c0.078-0.04,0.166-0.081,0.263-0.122c0.095-0.04,0.199-0.076,0.306-0.107c0.108-0.033,0.204-0.049,0.29-0.049
		c0.29,0,0.507,0.089,0.65,0.27s0.214,0.402,0.214,0.666v0.266L64.925,40.831z M65.716,42.05c-0.028,0.082-0.073,0.165-0.138,0.254
		c-0.064,0.09-0.143,0.173-0.238,0.251c-0.094,0.077-0.199,0.141-0.313,0.192c-0.118,0.052-0.237,0.076-0.361,0.076
		c-0.198,0-0.367-0.063-0.503-0.193c-0.138-0.128-0.207-0.306-0.207-0.531c0-0.114,0.035-0.219,0.106-0.314
		c0.07-0.098,0.157-0.185,0.262-0.26c0.104-0.074,0.222-0.139,0.351-0.192s0.25-0.095,0.363-0.12l0.678-0.146V42.05z"></path>
        <path fill="#5D686D" d="M67.659,37.443v4.84c0,0.13,0.013,0.253,0.036,0.372c0.026,0.118,0.068,0.221,0.131,0.311
		c0.06,0.089,0.144,0.16,0.246,0.214s0.233,0.08,0.395,0.08c0.08,0,0.169-0.014,0.267-0.04c0.096-0.027,0.163-0.055,0.201-0.081
		l-0.169-0.468c-0.022,0.026-0.062,0.055-0.121,0.08c-0.06,0.028-0.109,0.041-0.146,0.041c-0.102,0-0.175-0.052-0.217-0.153
		c-0.044-0.103-0.066-0.237-0.066-0.403v-4.792H67.659z"></path>
        <path fill="#5D686D" d="M72.288,39.702c-0.117-0.199-0.267-0.363-0.456-0.492c-0.189-0.13-0.42-0.194-0.694-0.194
		c-0.248,0-0.464,0.067-0.649,0.202c-0.186,0.135-0.342,0.303-0.468,0.504c-0.126,0.202-0.222,0.421-0.288,0.657
		c-0.064,0.237-0.095,0.455-0.095,0.655c0,0.252,0.024,0.508,0.072,0.77c0.048,0.262,0.133,0.5,0.254,0.717
		c0.121,0.219,0.284,0.397,0.488,0.534c0.204,0.136,0.465,0.205,0.782,0.205c0.151,0,0.295-0.012,0.432-0.036
		c0.137-0.024,0.26-0.053,0.372-0.085c0.11-0.032,0.203-0.064,0.282-0.097c0.077-0.032,0.132-0.056,0.165-0.072l-0.17-0.468
		c-0.043,0.026-0.098,0.057-0.168,0.092c-0.07,0.035-0.153,0.068-0.247,0.102c-0.095,0.032-0.196,0.061-0.306,0.084
		c-0.111,0.024-0.222,0.036-0.335,0.036c-0.189,0-0.35-0.052-0.485-0.155c-0.134-0.105-0.244-0.238-0.33-0.397
		c-0.086-0.159-0.149-0.329-0.19-0.511c-0.04-0.185-0.061-0.356-0.061-0.518h2.421v-0.2c0-0.217-0.026-0.442-0.077-0.679
		C72.485,40.12,72.402,39.9,72.288,39.702z M70.209,40.831c0-0.135,0.02-0.281,0.061-0.439c0.04-0.159,0.098-0.307,0.173-0.447
		c0.075-0.14,0.173-0.257,0.29-0.351c0.12-0.095,0.256-0.141,0.412-0.141c0.167,0,0.309,0.049,0.428,0.148
		c0.118,0.101,0.213,0.219,0.285,0.358c0.073,0.14,0.128,0.29,0.163,0.452c0.035,0.16,0.052,0.301,0.052,0.419H70.209z"></path>
        <polygon fill="#5D686D" points="78.971,43.163 79.56,43.163 79.56,37.782 78.971,37.782 78.971,40.114 76.752,40.114
		76.752,37.782 76.163,37.782 76.163,43.163 76.752,43.163 76.752,40.598 78.971,40.598 	"></polygon>
        <path fill="#5D686D" d="M81.662,43.038c0.207,0.147,0.463,0.222,0.771,0.222c0.295,0,0.545-0.074,0.75-0.222
		c0.204-0.148,0.37-0.334,0.493-0.556c0.121-0.224,0.212-0.466,0.269-0.728s0.082-0.502,0.082-0.722
		c0-0.188-0.025-0.399-0.078-0.633c-0.055-0.234-0.143-0.454-0.268-0.658c-0.121-0.205-0.285-0.376-0.492-0.516
		c-0.203-0.141-0.455-0.21-0.756-0.21c-0.285,0-0.531,0.071-0.732,0.214c-0.201,0.142-0.365,0.316-0.496,0.523
		c-0.127,0.207-0.222,0.427-0.282,0.657c-0.058,0.231-0.088,0.439-0.088,0.622c0,0.228,0.025,0.47,0.075,0.73
		c0.052,0.261,0.139,0.501,0.26,0.723C81.291,42.705,81.455,42.89,81.662,43.038z M81.469,40.546
		c0.033-0.181,0.093-0.351,0.171-0.509c0.08-0.159,0.188-0.293,0.317-0.398c0.129-0.109,0.289-0.163,0.476-0.163
		c0.192,0,0.354,0.058,0.483,0.17c0.131,0.113,0.234,0.25,0.314,0.412c0.08,0.161,0.139,0.33,0.17,0.508
		c0.033,0.177,0.049,0.333,0.049,0.468c0,0.161-0.016,0.344-0.045,0.548c-0.029,0.206-0.084,0.397-0.162,0.577
		c-0.078,0.181-0.18,0.332-0.313,0.456c-0.132,0.124-0.298,0.185-0.496,0.185c-0.205,0-0.375-0.061-0.505-0.185
		c-0.133-0.124-0.237-0.275-0.311-0.456c-0.076-0.18-0.127-0.371-0.158-0.577c-0.028-0.204-0.043-0.387-0.043-0.548
		C81.416,40.888,81.433,40.725,81.469,40.546z"></path>
        <path fill="#5D686D" d="M85.828,39.996c0.088-0.153,0.193-0.278,0.32-0.374c0.127-0.098,0.27-0.146,0.43-0.146
		c0.076,0,0.156,0.012,0.248,0.032c0.088,0.021,0.172,0.05,0.254,0.081c0.08,0.033,0.15,0.063,0.209,0.093
		c0.058,0.029,0.096,0.053,0.111,0.068l0.172-0.467c-0.018-0.018-0.057-0.039-0.119-0.07c-0.061-0.029-0.137-0.058-0.225-0.088
		c-0.09-0.029-0.189-0.056-0.302-0.077c-0.114-0.021-0.229-0.032-0.348-0.032c-0.246,0-0.471,0.063-0.664,0.19
		c-0.197,0.126-0.363,0.285-0.5,0.479c-0.139,0.194-0.246,0.411-0.32,0.65c-0.075,0.238-0.112,0.472-0.112,0.697
		c0,0.274,0.028,0.544,0.084,0.81c0.055,0.268,0.145,0.504,0.27,0.714s0.285,0.382,0.488,0.509c0.201,0.131,0.449,0.193,0.736,0.193
		c0.137,0,0.266-0.011,0.389-0.036c0.125-0.023,0.238-0.052,0.334-0.084c0.1-0.031,0.184-0.064,0.25-0.097
		c0.068-0.033,0.111-0.056,0.137-0.072l-0.172-0.477c-0.031,0.028-0.082,0.059-0.149,0.094c-0.068,0.035-0.14,0.068-0.226,0.1
		c-0.082,0.032-0.172,0.06-0.262,0.08c-0.09,0.022-0.18,0.032-0.267,0.032c-0.182,0-0.34-0.052-0.469-0.156
		c-0.135-0.104-0.24-0.241-0.326-0.407c-0.082-0.167-0.145-0.357-0.182-0.569c-0.035-0.211-0.055-0.422-0.055-0.633
		c0-0.172,0.022-0.35,0.069-0.532C85.676,40.318,85.742,40.149,85.828,39.996z"></path>
        <path fill="#5D686D" d="M91.261,39.444c-0.103-0.129-0.236-0.233-0.398-0.312c-0.162-0.078-0.35-0.117-0.565-0.117
		c-0.14,0-0.269,0.028-0.392,0.086c-0.121,0.056-0.229,0.121-0.322,0.196c-0.092,0.076-0.17,0.15-0.225,0.223
		c-0.059,0.072-0.092,0.125-0.102,0.157v-2.235h-0.556v5.72h0.556v-2.921c0.004-0.048,0.034-0.116,0.09-0.201
		c0.053-0.086,0.125-0.171,0.213-0.255c0.088-0.083,0.19-0.155,0.307-0.217c0.115-0.063,0.238-0.094,0.365-0.094
		c0.131,0,0.246,0.029,0.344,0.09c0.099,0.059,0.181,0.136,0.246,0.229c0.066,0.094,0.115,0.198,0.15,0.315
		c0.035,0.113,0.053,0.226,0.053,0.334v2.719h0.555v-2.784c0-0.166-0.026-0.331-0.08-0.496
		C91.447,39.719,91.369,39.573,91.261,39.444z"></path>
        <path fill="#5D686D" d="M93.903,42.823c-0.095,0-0.203-0.013-0.321-0.041c-0.119-0.025-0.23-0.055-0.334-0.087
		c-0.105-0.033-0.202-0.066-0.277-0.102c-0.084-0.035-0.137-0.059-0.162-0.076l-0.17,0.452c0.041,0.021,0.101,0.048,0.179,0.08
		c0.08,0.032,0.174,0.064,0.28,0.097c0.106,0.033,0.229,0.06,0.367,0.081c0.137,0.021,0.287,0.032,0.446,0.032
		c0.183,0,0.356-0.03,0.522-0.089c0.162-0.059,0.304-0.143,0.425-0.249c0.121-0.109,0.219-0.236,0.287-0.384
		c0.071-0.147,0.104-0.31,0.104-0.48c0-0.15-0.048-0.286-0.144-0.408c-0.097-0.121-0.216-0.231-0.358-0.335
		c-0.145-0.102-0.3-0.196-0.47-0.286c-0.17-0.089-0.326-0.178-0.468-0.27c-0.141-0.091-0.262-0.188-0.36-0.29
		c-0.096-0.103-0.144-0.213-0.144-0.331c0-0.21,0.072-0.378,0.218-0.504c0.147-0.127,0.321-0.19,0.524-0.19
		c0.074,0,0.158,0.012,0.246,0.032c0.09,0.022,0.174,0.047,0.254,0.077c0.082,0.03,0.151,0.061,0.215,0.093
		c0.06,0.032,0.104,0.06,0.125,0.08l0.168-0.443c-0.026-0.021-0.073-0.047-0.135-0.076c-0.067-0.029-0.146-0.059-0.234-0.084
		c-0.094-0.027-0.194-0.053-0.303-0.073c-0.112-0.023-0.222-0.033-0.328-0.033c-0.178,0-0.342,0.03-0.498,0.089
		c-0.159,0.06-0.295,0.144-0.416,0.25c-0.122,0.108-0.219,0.238-0.288,0.389c-0.07,0.149-0.105,0.314-0.105,0.491
		c0,0.167,0.049,0.313,0.141,0.436c0.097,0.125,0.214,0.236,0.357,0.339c0.141,0.103,0.297,0.198,0.463,0.288
		c0.166,0.088,0.319,0.176,0.465,0.265c0.14,0.088,0.26,0.18,0.353,0.274c0.097,0.094,0.144,0.2,0.144,0.318
		c0,0.209-0.078,0.374-0.231,0.492C94.286,42.765,94.106,42.823,93.903,42.823z"></path>
        <path fill="#5D686D" d="M97.002,39.996c0.088-0.153,0.192-0.278,0.317-0.374c0.127-0.098,0.272-0.146,0.433-0.146
		c0.073,0,0.157,0.012,0.245,0.032c0.089,0.021,0.175,0.05,0.255,0.081c0.08,0.033,0.151,0.063,0.209,0.093
		c0.062,0.029,0.1,0.053,0.114,0.068l0.17-0.467c-0.016-0.018-0.057-0.039-0.118-0.07c-0.062-0.029-0.136-0.058-0.226-0.088
		c-0.09-0.029-0.188-0.056-0.302-0.077c-0.112-0.021-0.229-0.032-0.348-0.032c-0.248,0-0.47,0.063-0.664,0.19
		c-0.199,0.126-0.363,0.285-0.5,0.479c-0.14,0.194-0.244,0.411-0.32,0.65c-0.075,0.238-0.112,0.472-0.112,0.697
		c0,0.274,0.03,0.544,0.086,0.81c0.056,0.268,0.144,0.504,0.269,0.714c0.123,0.21,0.287,0.382,0.487,0.509
		c0.203,0.131,0.449,0.193,0.738,0.193c0.135,0,0.265-0.011,0.39-0.036c0.12-0.023,0.233-0.052,0.332-0.084
		c0.102-0.031,0.184-0.064,0.25-0.097c0.067-0.033,0.11-0.056,0.133-0.072l-0.168-0.477c-0.031,0.028-0.08,0.059-0.147,0.094
		c-0.07,0.035-0.144,0.068-0.228,0.1c-0.084,0.032-0.17,0.06-0.263,0.08c-0.092,0.022-0.18,0.032-0.267,0.032
		c-0.18,0-0.342-0.052-0.471-0.156c-0.134-0.104-0.24-0.241-0.322-0.407c-0.086-0.167-0.146-0.357-0.182-0.569
		c-0.039-0.211-0.058-0.422-0.058-0.633c0-0.172,0.024-0.35,0.069-0.532S96.916,40.149,97.002,39.996z"></path>
        <path fill="#5D686D" d="M99.873,37.443v5.72h0.558v-2.921c0.004-0.048,0.036-0.116,0.088-0.201
		c0.053-0.086,0.123-0.171,0.213-0.255c0.09-0.083,0.192-0.155,0.31-0.217c0.112-0.063,0.235-0.094,0.365-0.094
		c0.129,0,0.243,0.029,0.344,0.09c0.099,0.059,0.181,0.136,0.246,0.229c0.063,0.094,0.112,0.198,0.147,0.315
		c0.035,0.113,0.053,0.226,0.053,0.334v2.719h0.558v-2.784c0-0.166-0.028-0.331-0.08-0.496c-0.053-0.164-0.133-0.31-0.239-0.438
		c-0.104-0.129-0.238-0.233-0.397-0.312c-0.162-0.078-0.351-0.117-0.567-0.117c-0.138,0-0.269,0.028-0.388,0.086
		c-0.123,0.056-0.229,0.121-0.326,0.196c-0.092,0.076-0.168,0.15-0.225,0.223c-0.058,0.072-0.091,0.125-0.101,0.157v-2.235H99.873z"></path>
        <path fill="#5D686D" d="M106.377,42.033c-0.004,0.033-0.033,0.091-0.086,0.177c-0.051,0.086-0.119,0.172-0.203,0.258
		c-0.088,0.088-0.188,0.163-0.301,0.23c-0.111,0.066-0.234,0.101-0.361,0.101c-0.141,0-0.258-0.027-0.356-0.085
		c-0.096-0.055-0.176-0.127-0.233-0.217c-0.06-0.088-0.106-0.19-0.135-0.307c-0.029-0.115-0.043-0.234-0.043-0.359v-2.718h-0.558
		v2.766c0,0.179,0.026,0.351,0.073,0.519c0.048,0.166,0.125,0.313,0.226,0.438c0.104,0.127,0.233,0.229,0.392,0.309
		c0.16,0.076,0.347,0.115,0.567,0.115c0.147,0,0.279-0.028,0.401-0.088c0.119-0.059,0.226-0.127,0.318-0.201
		c0.092-0.075,0.166-0.152,0.221-0.227c0.058-0.075,0.093-0.126,0.109-0.152v0.572h0.524v-4.05h-0.556V42.033z"></path>
        <path fill="#5D686D" d="M108.313,42.283c0,0.13,0.012,0.253,0.035,0.372c0.024,0.118,0.069,0.221,0.131,0.311
		c0.06,0.089,0.142,0.16,0.246,0.214c0.101,0.054,0.233,0.08,0.394,0.08c0.081,0,0.172-0.014,0.269-0.04
		c0.096-0.027,0.163-0.055,0.198-0.081l-0.168-0.468c-0.021,0.026-0.06,0.055-0.119,0.08c-0.06,0.028-0.108,0.041-0.146,0.041
		c-0.104,0-0.176-0.052-0.219-0.153c-0.045-0.103-0.065-0.237-0.065-0.403v-4.792h-0.556V42.283z"></path>
        <path fill="#5D686D" d="M113.209,41.034c0-0.217-0.026-0.442-0.076-0.679c-0.051-0.235-0.135-0.455-0.25-0.653
		c-0.116-0.199-0.268-0.363-0.455-0.492c-0.19-0.13-0.418-0.194-0.694-0.194c-0.248,0-0.465,0.067-0.647,0.202
		c-0.188,0.135-0.344,0.303-0.469,0.504c-0.13,0.202-0.224,0.421-0.287,0.657c-0.065,0.237-0.097,0.455-0.097,0.655
		c0,0.252,0.024,0.508,0.072,0.77c0.047,0.262,0.131,0.5,0.254,0.717c0.12,0.219,0.284,0.397,0.487,0.534
		c0.205,0.136,0.465,0.205,0.781,0.205c0.153,0,0.297-0.012,0.432-0.036c0.14-0.024,0.263-0.053,0.373-0.085
		c0.109-0.032,0.205-0.064,0.283-0.097c0.076-0.032,0.133-0.056,0.164-0.072l-0.17-0.468c-0.041,0.026-0.099,0.057-0.168,0.092
		c-0.07,0.035-0.152,0.068-0.244,0.102c-0.099,0.032-0.199,0.061-0.31,0.084c-0.11,0.024-0.222,0.036-0.334,0.036
		c-0.187,0-0.349-0.052-0.485-0.155c-0.134-0.105-0.242-0.238-0.33-0.397c-0.086-0.159-0.151-0.329-0.19-0.511
		c-0.039-0.185-0.058-0.356-0.058-0.518h2.418V41.034z M110.806,40.831c0-0.135,0.021-0.281,0.06-0.439
		c0.04-0.159,0.1-0.307,0.174-0.447c0.076-0.14,0.174-0.257,0.291-0.351c0.116-0.095,0.256-0.141,0.41-0.141
		c0.168,0,0.311,0.049,0.43,0.148c0.117,0.101,0.213,0.219,0.285,0.358c0.073,0.14,0.127,0.29,0.162,0.452
		c0.034,0.16,0.053,0.301,0.053,0.419H110.806z"></path>
</g>
</svg>
